<?xml version="1.0" encoding="UTF-8" standalone="no"?>
<!-- Created with Inkscape (http://www.inkscape.org/) -->

<svg
   width="22.093996"
   height="21.998032"
   viewBox="0 0 5.845703 5.8203125"
   version="1.1"
   id="svg1"
   xml:space="preserve"
   xmlns="http://www.w3.org/2000/svg"
   xmlns:svg="http://www.w3.org/2000/svg"><defs
     id="defs1" /><g
     id="layer1"
     transform="translate(-0.27929691,-0.1640625)"><g
       id="path5"
       style="opacity:1"><path
         style="baseline-shift:baseline;display:inline;overflow:visible;vector-effect:none;fill:currentColor ;enable-background:accumulate;stop-color:#000000;stop-opacity:1"
         d="M 2.8179688,3.4088277 1.2110153,5.6740555 1.3730804,5.7877798 3.180563,3.1967519 Z"
         id="path222" /><path
         style="baseline-shift:baseline;display:inline;overflow:visible;vector-effect:none;enable-background:accumulate;stop-color:#000000;stop-opacity:1"
         d="m 3.1601563,3.1601563 -0.3710938,0.2167968 -1.6367188,2.3066406 0.2304688,0.1621094 1.8320313,-2.625 z M 3.0371094,3.3300781 1.3613281,5.7285156 1.2714844,5.6640625 2.8457031,3.4414063 Z"
         id="path223" /></g><g
       id="path6"
       style="opacity:1"><path
         style="baseline-shift:baseline;display:inline;overflow:visible;vector-effect:none;fill:#ffffff;enable-background:accumulate;stop-color:#000000;stop-opacity:1"
         d="M 1.3173206,5.6936726 C 1.2868196,5.6724051 1.2734869,5.6614972 1.2751314,5.6591138 1.2852705,5.6447214 1.7507702,4.9880431 1.8452315,4.8549676 1.9656822,4.6852795 2.2533668,4.2796907 2.3172267,4.1895345 2.3508323,4.1420503 2.5227692,3.8998061 2.7404664,3.593119 l 0.1048258,-0.1476693 0.088945,-0.052068 c 0.048948,-0.028692 0.090406,-0.05271 0.092096,-0.053351 0.00182,-6.968e-4 -9.132e-4,0.00459 -0.00639,0.012284 -0.013058,0.018058 -0.1125608,0.1606129 -0.202465,0.2901868 -0.039907,0.057476 -0.074974,0.1069224 -0.078078,0.1098833 -0.00274,0.00275 -0.00457,0.00551 -0.00366,0.00551 8.584e-4,0 -0.043104,0.063985 -0.097722,0.1421508 C 2.5834132,3.9782337 2.4909975,4.1106582 2.4326533,4.1943334 2.3743001,4.2780272 2.2999839,4.3845187 2.2674833,4.4310039 2.2349733,4.47748 2.1645477,4.5784533 2.110943,4.6553725 2.0573386,4.7322831 2.0043089,4.8083586 1.993104,4.824419 1.981872,4.840461 1.933655,4.909671 1.8859129,4.9781018 c -0.04776,0.068477 -0.1292996,0.1853359 -0.181224,0.259716 -0.071595,0.1025316 -0.2693568,0.386329 -0.3334906,0.4785387 -0.00274,0.00459 -0.00639,0.00825 -0.0073,0.00825 -7.945e-4,9.16e-5 -0.021551,-0.013843 -0.046025,-0.030892 z"
         id="path220" /><path
         style="baseline-shift:baseline;display:inline;overflow:visible;vector-effect:none;enable-background:accumulate;stop-color:#000000;stop-opacity:1"
         d="m 3.0214844,3.3339844 c 0,0 -0.00195,0.00195 -0.00195,0.00195 -0.00143,7.974e-4 -0.0034,5.51e-4 -0.00586,0.00195 -0.00491,0.0028 -0.011176,0.00688 -0.019531,0.011719 -0.01671,0.00968 -0.03997,0.022758 -0.064453,0.037109 L 2.8398438,3.4394531 2.734375,3.5898438 C 2.5166777,3.896531 2.3441719,4.1380352 2.3105469,4.1855469 2.2466952,4.2756915 1.9602921,4.6818778 1.8398437,4.8515625 1.7453736,4.9846505 1.2800441,5.639374 1.2695312,5.6542969 c -5.13e-5,7.45e-5 -0.00193,0.00381 -0.00195,0.00391 0,0 0,0.00195 0,0.00195 1.48e-5,2.161e-4 0.00182,0.00362 0.00195,0.00391 0,0 0,0.00195 0,0.00195 0,0 0.00195,0.00195 0.00195,0.00195 0.002,0.00226 0.00419,0.00485 0.00781,0.00781 0.00724,0.00593 0.017882,0.012755 0.033203,0.023437 l 0.00195,0.00195 h 0.00195 c 0.011254,0.00782 0.021499,0.014297 0.029297,0.019531 0.0042,0.00282 0.00724,0.0062 0.00977,0.00781 0.00126,8.068e-4 0.00306,0.00146 0.00391,0.00195 0,0 0.00195,0 0.00195,0 0,0 0,0.00195 0,0.00195 0,0 0.00195,0 0.00195,0 5.69e-5,0 0.00383,-0.00193 0.00391,-0.00195 0,0 0.00195,0 0.00195,0 5.13e-4,-4.148e-4 0.00304,-0.00297 0.00391,-0.00391 0.00173,-0.00188 0.00224,-0.00308 0.00391,-0.00586 C 1.4410794,5.6285043 1.6393499,5.3447085 1.7109375,5.2421875 1.7628629,5.167806 1.8448172,5.0509002 1.8925781,4.9824219 1.9403221,4.9139884 1.988796,4.844127 2,4.828125 2.01121,4.812057 2.063583,4.737067 2.1171875,4.6601562 c 0.053603,-0.076917 0.1237482,-0.178145 0.15625,-0.2246093 0.032506,-0.046493 0.1076609,-0.1526322 0.1660156,-0.2363282 0.058342,-0.083673 0.1504747,-0.216736 0.2050782,-0.2949218 0.027318,-0.039096 0.050633,-0.073819 0.068359,-0.099609 0.00886,-0.012895 0.016604,-0.023991 0.021484,-0.03125 0.00244,-0.00363 0.00458,-0.00583 0.00586,-0.00781 6.385e-4,-9.902e-4 0.00157,-0.00325 0.00195,-0.00391 0,0 0,-0.00195 0,-0.00195 0,0 0,-0.00195 0,-0.00195 0,0 0.00195,0 0.00195,0 0,0 0.00195,-0.00195 0.00195,-0.00195 0,0 0.00195,-0.00195 0.00195,-0.00195 0.00139,-0.00182 0.00367,-0.00481 0.00586,-0.00781 0.00438,-0.006 0.010495,-0.013464 0.017578,-0.023437 0.014165,-0.019948 0.032769,-0.047417 0.052734,-0.076172 0.089896,-0.1295617 0.1884833,-0.2715155 0.2011718,-0.2890625 0.00286,-0.00402 0.00638,-0.00896 0.00781,-0.011719 0,0 0,-0.00195 0,-0.00195 0,0 0,-0.00195 0,-0.00195 0,0 0,-0.00195 0,-0.00195 0,0 0,-0.00195 0,-0.00195 0,0 -0.00586,0.00195 -0.00586,0.00195 -7.87e-5,-2.4e-6 -0.00379,-0.0059 -0.00391,-0.00586 z m -0.019531,0.029297 c -0.021334,0.030005 -0.1064389,0.1529319 -0.1914062,0.2753906 -0.019942,0.028721 -0.038614,0.054334 -0.052734,0.074219 -0.00706,0.00994 -0.011312,0.019488 -0.015625,0.025391 -0.00216,0.00295 -0.00458,0.00418 -0.00586,0.00586 0,0 -0.00195,0.00195 -0.00195,0.00195 0,0 0,0.00195 0,0.00195 -0.00166,0.00166 -0.00281,0.00225 -0.00391,0.00391 0,0 -0.00195,0.00195 -0.00195,0.00195 0,0 0,0.00195 0,0.00195 0,0 0,0.00195 0,0.00195 0,0 0,0.00195 0,0.00195 -0.00117,0.00179 -0.00383,0.00284 -0.00586,0.00586 -0.00483,0.00718 -0.012637,0.016425 -0.021484,0.029297 -0.017695,0.025744 -0.041059,0.062492 -0.068359,0.1015625 -0.054607,0.07819 -0.1486853,0.209291 -0.2070312,0.2929687 -0.058352,0.083692 -0.1315675,0.191804 -0.1640625,0.2382813 -0.032518,0.046488 -0.102644,0.145735 -0.15625,0.2226562 -0.053604,0.07691 -0.1079411,0.1538692 -0.1191407,0.1699219 -0.01126,0.016082 -0.057728,0.085869 -0.1054687,0.1542969 C 1.8331003,5.043085 1.7511422,5.1599963 1.6992187,5.234375 1.6276164,5.3369172 1.4293757,5.62067 1.3652344,5.7128906 c -8.085e-4,0.00135 -0.00109,0.00287 -0.00195,0.00391 -2.873e-4,-1.837e-4 -0.00164,2.053e-4 -0.00195,0 -0.00229,-0.00148 -0.00417,-0.00537 -0.00781,-0.00781 -0.0083,-0.00557 -0.019042,-0.01298 -0.03125,-0.021484 h -0.00195 l -0.00195,-0.00195 c -0.012752,-0.00897 -0.023363,-0.016625 -0.029297,-0.021484 -0.00239,-0.00196 -0.00464,-0.00271 -0.00586,-0.00391 C 1.2968846,5.640771 1.7575234,4.9918557 1.8515625,4.859375 1.9720156,4.6896835 2.2583975,4.2835271 2.3222656,4.1933594 2.3558518,4.1459027 2.5283967,3.9043432 2.7460938,3.5976563 L 2.8496094,3.4511719 2.9375,3.4003906 c 0.024465,-0.014341 0.047775,-0.027447 0.064453,-0.037109 z"
         id="path221" /></g><g
       id="path7"
       style="opacity:1"><path
         style="baseline-shift:baseline;display:inline;overflow:visible;vector-effect:none;fill:#ffffff;enable-background:accumulate;stop-color:#000000;stop-opacity:1"
         d="M 1.3250097,5.6875216 C 1.3061068,5.673955 1.2897607,5.6618543 1.288664,5.6606626 1.2877509,5.659746 1.3190739,5.6127196 1.3587064,5.5567933 1.4794954,5.3862613 1.7478293,5.007715 1.8769098,4.8257524 1.9440298,4.731086 2.0554216,4.5741032 2.124368,4.4768976 2.4473386,4.021597 2.6531002,3.7316853 2.7482646,3.597858 l 0.103803,-0.146001 0.070316,-0.041068 c 0.038719,-0.022551 0.070865,-0.040517 0.071413,-0.039785 5.936e-4,6.6e-4 -0.013515,0.021909 -0.031231,0.04721 -0.017807,0.0253 -0.065477,0.093686 -0.1060862,0.1520052 -0.040546,0.058301 -0.085566,0.1225704 -0.1001046,0.1427742 -0.031962,0.044642 -0.031688,0.044001 -0.027761,0.049226 0.00182,0.00275 0.00182,0.00459 2.191e-4,0.00641 -0.00182,9.167e-4 -0.00274,5.316e-4 -0.00274,-9.167e-4 0,-0.00825 -0.0073,6.509e-4 -0.042829,0.051335 C 2.6168779,3.9145857 2.297469,4.3723425 2.1669822,4.5590077 2.1351112,4.6046587 2.0873522,4.673117 2.06096,4.7111504 2.0345638,4.7491954 1.9574345,4.8598399 1.8896023,4.9570455 1.8217527,5.054246 1.7353824,5.1780356 1.6976309,5.2321294 1.6599158,5.2862139 1.5721758,5.4120936 1.502718,5.5118292 1.3555014,5.7232449 1.3625879,5.7131797 1.3608254,5.7130147 1.3600766,5.7129506 1.3440225,5.7017394 1.3251194,5.6881725 Z"
         id="path218" /><path
         style="baseline-shift:baseline;display:inline;overflow:visible;vector-effect:none;enable-background:accumulate;stop-color:#000000;stop-opacity:1"
         d="m 2.9902344,3.3632813 c 0,0 -0.00195,0.00195 -0.00195,0.00195 -0.00122,5.634e-4 -0.002,9.578e-4 -0.00391,0.00195 -0.0038,0.00199 -0.00912,0.00419 -0.015625,0.00781 -0.013007,0.00725 -0.031391,0.018004 -0.050781,0.029297 L 2.8476563,3.4472656 2.7421875,3.59375 C 2.6470176,3.727585 2.4421117,4.017355 2.1191406,4.4726562 2.0501951,4.5698606 1.9382155,4.7275968 1.8710937,4.8222656 1.7420112,5.0042311 1.4743069,5.3821992 1.3535156,5.5527344 c -0.01985,0.02801 -0.038066,0.053338 -0.050781,0.072266 -0.00636,0.00946 -0.012135,0.017927 -0.015625,0.023437 -0.00175,0.00276 -0.00295,0.00419 -0.00391,0.00586 0,0 0,0.00195 0,0.00195 0,0 -0.00195,0.00195 -0.00195,0.00195 0,0 0,0.00195 0,0.00195 0,0 0,0.00195 0,0.00195 0,0 0,0.00195 0,0.00195 l 0.00195,0.00195 c 0,0 0.00195,0.00195 0.00195,0.00195 0,0 0.00195,0.00195 0.00195,0.00195 0.00203,0.00155 0.0045,0.00341 0.00781,0.00586 0.00604,0.00447 0.014909,0.00949 0.023437,0.015625 l 0.00195,0.00195 c 0.00947,0.0068 0.018876,0.013041 0.025391,0.017578 0.00326,0.00227 0.00583,0.00454 0.00781,0.00586 0,0 0.00195,0.00195 0.00195,0.00195 0,0 0.00195,0 0.00195,0 0,0 0.00391,-0.00586 0.00391,-0.00586 0,0 -0.00195,0.00781 -0.00195,0.00781 0,0 0.00195,0 0.00195,0 4.81e-5,-4e-7 0.00384,-0.00192 0.00391,-0.00195 0,0 0.00195,-0.00195 0.00195,-0.00195 0,0 0.00195,0 0.00195,0 0.00221,-0.00275 0.00523,-0.00951 0.013672,-0.021484 0.016888,-0.023942 0.051392,-0.07398 0.125,-0.1796875 C 1.5772689,5.4158914 1.6654113,5.2904106 1.703125,5.2363281 1.7408772,5.1822333 1.8286355,5.0581369 1.8964844,4.9609375 1.9643181,4.8637297 2.0399923,4.7529143 2.0664063,4.7148437 2.092786,4.6768283 2.1419585,4.608149 2.1738281,4.5625 2.3043207,4.3758265 2.6230412,3.917841 2.6894531,3.8222656 c 0.017745,-0.025314 0.027348,-0.039839 0.033203,-0.046875 5.058e-4,2.987e-4 0.00191,-1.62e-5 0.00195,0 0,0 0.00195,0.00195 0.00195,0.00195 0,0 0.00195,-0.00195 0.00195,-0.00195 3.422e-4,-7.02e-5 0.00345,2.292e-4 0.00391,0 l 0.00195,-0.00195 c 4.002e-4,-4.55e-4 0.00176,-0.00343 0.00195,-0.00391 1.967e-4,-4.715e-4 1.37e-5,-0.00339 0,-0.00391 -1.37e-5,-5.156e-4 2.309e-4,-0.00332 0,-0.00391 -2.309e-4,-5.877e-4 -0.00129,-0.00291 -0.00195,-0.00391 0,0 0.00195,-0.00195 0.00195,-0.00195 0.00293,-0.00518 0.00941,-0.016736 0.025391,-0.039063 0.014652,-0.020361 0.061006,-0.084262 0.1015625,-0.1425781 0.040607,-0.058317 0.087696,-0.1270922 0.1054687,-0.1523438 0.00889,-0.012691 0.015763,-0.024564 0.021484,-0.033203 0.00286,-0.00432 0.00621,-0.00714 0.00781,-0.00977 C 2.9988482,3.3775952 2.9994931,3.375967 3,3.375 3,3.375 3,3.37305 3,3.37305 2.99803,3.3727078 2.99414,3.3711 2.99414,3.3711 2.99414,3.3711 3,3.36915 3,3.36915 c 0,0 0,-0.00195 0,-0.00195 0,0 -0.00195,-0.00195 -0.00195,-0.00195 0,0 -0.00195,-0.00195 -0.00195,-0.00195 0,0 -0.00195,0 -0.00195,0 0,0 -0.00195,0 -0.00195,0 z m -0.019531,0.027344 c -0.00475,0.00701 -0.00762,0.014795 -0.013672,0.023437 -0.017841,0.025348 -0.066811,0.094022 -0.1074219,0.1523438 -0.040536,0.058286 -0.085184,0.1225319 -0.09961,0.1425783 -0.015977,0.022316 -0.023403,0.032096 -0.027344,0.039063 -9.853e-4,0.00174 -0.00138,0.00425 -0.00195,0.00586 0,0 -0.00195,0.00195 -0.00195,0.00195 -7.17e-5,4.096e-4 -1.96e-5,0.00356 0,0.00391 0,0 -0.00195,0.00195 -0.00195,0.00195 -0.00137,0.00132 -0.00224,0.00385 -0.00391,0.00586 -0.00668,0.00802 -0.017372,0.021505 -0.035156,0.046875 C 2.6113743,3.9099538 2.2906372,4.3680306 2.1601563,4.5546875 2.1282838,4.6003405 2.0810922,4.6689799 2.0546875,4.7070312 2.0283091,4.7450507 1.9506431,4.8559216 1.8828125,4.953125 1.8149621,5.0503266 1.729157,5.1744229 1.6914062,5.2285156 1.6536898,5.2826021 1.565553,5.4080749 1.4960937,5.5078125 1.4224851,5.6135208 1.3879076,5.6636623 1.3710937,5.6875 c -0.00688,0.00976 -0.00968,0.012936 -0.011719,0.015625 -0.00163,-0.00111 -0.00355,-0.0023 -0.00586,-0.00391 -0.00583,-0.00406 -0.013067,-0.0096 -0.021484,-0.015625 l -0.00195,-0.00195 c -0.00943,-0.00677 -0.018842,-0.012736 -0.025391,-0.017578 -0.00275,-0.00203 -0.00403,-0.00447 -0.00586,-0.00586 4.273e-4,-6.877e-4 -5.047e-4,-0.00116 0,-0.00195 0.00336,-0.00531 0.00931,-0.014039 0.015625,-0.023437 0.012626,-0.018796 0.030998,-0.04435 0.050781,-0.072266 C 1.4860211,5.3900181 1.753734,5.0120379 1.8828125,4.8300781 1.9499308,4.7354142 2.0619121,4.5776756 2.1308594,4.4804687 2.4538295,4.0251688 2.6587473,3.7353821 2.7539063,3.6015625 l 0.1035156,-0.1445312 0.068359,-0.039063 c 0.017334,-0.010096 0.032509,-0.020376 0.044922,-0.027344 z"
         id="path219" /></g><g
       id="path8"
       style="opacity:1"><path
         style="baseline-shift:baseline;display:inline;overflow:visible;vector-effect:none;fill:#ffffff;enable-background:accumulate;stop-color:#000000;stop-opacity:1"
         d="m 1.3303611,5.6798032 c -0.015798,-0.011275 -0.02904,-0.020717 -0.029405,-0.021084 -7.945e-4,-6.691e-4 0.020547,-0.033092 0.040455,-0.06151 C 1.3570265,5.574934 1.851733,4.8766286 1.9227705,4.7765629 2.0138163,4.6483274 2.0893561,4.5418633 2.432079,4.0588787 2.6186178,3.7960184 2.7910205,3.553371 2.8151927,3.5196736 l 0.043925,-0.061234 0.051961,-0.030159 c 0.028583,-0.016592 0.052326,-0.029792 0.052783,-0.029334 4.383e-4,5.042e-4 -0.0073,0.011917 -0.016528,0.025392 C 2.9046877,3.4846576 2.7482112,3.709035 2.735673,3.7277813 2.728373,3.7392393 2.711199,3.7634403 2.698232,3.7815913 2.685265,3.7997413 2.610565,3.9065632 2.5322217,4.0189859 2.4538678,4.1313979 2.3433801,4.2897649 2.2866889,4.3709102 2.2299793,4.452037 2.142705,4.5772199 2.0926983,4.64907 1.9468241,4.8586431 1.7900282,5.0836076 1.7274559,5.173113 1.6704718,5.2546983 1.5401682,5.4415743 1.4243382,5.6080264 c -0.032327,0.046476 -0.060271,0.08626 -0.062098,0.088369 -0.00274,0.00275 -0.00913,-3.025e-4 -0.031962,-0.016592 z"
         id="path216" /><path
         style="baseline-shift:baseline;display:inline;overflow:visible;vector-effect:none;enable-background:accumulate;stop-color:#000000;stop-opacity:1"
         d="m 2.9589844,3.3925781 c 0,0 -0.00195,0.00195 -0.00195,0.00195 -0.00284,0.00149 -0.00691,0.00318 -0.011719,0.00586 -0.00963,0.00535 -0.022786,0.01317 -0.037109,0.021484 l -0.054687,0.03125 -0.044922,0.0625 C 2.78433,3.5494501 2.6123215,3.7918251 2.4257813,4.0546875 2.0830583,4.5376721 2.0070607,4.6432499 1.9160156,4.7714844 1.844959,4.871577 1.3519863,5.5708566 1.3359375,5.59375 c -0.01,0.014273 -0.021524,0.0292 -0.029297,0.041016 -0.00389,0.00591 -0.00554,0.00998 -0.00781,0.013672 -0.00114,0.00185 -0.00324,0.00463 -0.00391,0.00586 0,0 0,0.00195 0,0.00195 0.00195,4.376e-4 0.00586,0.00195 0.00586,0.00195 0,0 -0.00781,0 -0.00781,0 0,0 0.00195,0.00195 0.00195,0.00195 0,0 0,0.00195 0,0.00195 v 0.00195 c 0,0 0.00195,0 0.00195,0 0,0 0,0.00195 0,0.00195 0,0 0.00195,0 0.00195,0 0.00156,0.00113 0.00319,0.00395 0.00586,0.00586 0.00534,0.00382 0.013586,0.00803 0.021484,0.013672 0.00177,0.00126 0.00232,8.414e-4 0.00391,0.00195 0.0087,0.00611 0.014816,0.011257 0.019531,0.013672 0.00139,7.136e-4 0.00262,0.00148 0.00391,0.00195 0.00129,4.695e-4 0.00519,0.00188 0.00586,0.00195 6.706e-4,7.7e-5 0.00342,-0.00181 0.00391,-0.00195 4.816e-4,-1.479e-4 0.00356,-0.00161 0.00391,-0.00195 0.00183,-0.00211 0.030162,-0.043352 0.0625,-0.089844 C 1.5455146,5.4448802 1.677396,5.2593124 1.734375,5.1777344 1.7969572,5.0882148 1.9537333,4.8619195 2.0996094,4.6523437 2.1496122,4.5804992 2.2362645,4.4561192 2.2929688,4.375 2.3496635,4.2938497 2.4607069,4.1358519 2.5390625,4.0234375 2.6174015,3.911021 2.6922772,3.8030738 2.7050781,3.7851563 2.7180569,3.7669887 2.734604,3.7443249 2.7421875,3.7324219 2.7540901,3.7146258 2.9105458,3.487959 2.953125,3.4277344 c 0.00462,-0.00675 0.00863,-0.012892 0.011719,-0.017578 9.506e-4,-0.00144 0.00124,-0.00277 0.00195,-0.00391 4.485e-4,-7.099e-4 0.0016,-0.00136 0.00195,-0.00195 0,0 0.00195,-0.00195 0.00195,-0.00195 0,0 0,-0.00195 0,-0.00195 0,0 0,-0.00195 0,-0.00195 0,0 0,-0.00195 0,-0.00195 l -0.00195,-0.00195 c 0,0 -0.00586,0.00391 -0.00586,0.00391 -5.92e-5,1.2e-5 -0.00185,-0.0059 -0.00195,-0.00586 z m -0.017578,0.027344 c -0.042713,0.060413 -0.1977638,0.2849909 -0.2109375,0.3046875 -0.00702,0.011013 -0.026107,0.0346 -0.039063,0.052734 C 2.6782732,3.7957262 2.6037382,3.9031961 2.5253906,4.015625 2.4470384,4.1280346 2.3379377,4.2860472 2.28125,4.3671875 2.2245351,4.4483219 2.1359481,4.5726756 2.0859375,4.6445312 1.9400652,4.8541017 1.7832655,5.0804306 1.7207031,5.1699219 1.663714,5.2515144 1.5338017,5.4370593 1.4179687,5.6035156 c -0.031829,0.04576 -0.05799,0.082766 -0.060547,0.085937 -6.177e-4,-3.164e-4 -0.00313,-0.00151 -0.00391,-0.00195 l -0.019531,-0.013672 c -0.00143,-0.00102 -0.00252,-9.67e-4 -0.00391,-0.00195 -0.00624,-0.00446 -0.011267,-0.0086 -0.015625,-0.011719 -0.00177,-0.00127 -0.00261,-0.00298 -0.00391,-0.00391 0.00213,-0.00346 0.00593,-0.00784 0.00977,-0.013672 0.00768,-0.011668 0.017435,-0.026871 0.027344,-0.041016 C 1.3628383,5.5799055 1.856716,4.8812888 1.9277344,4.78125 2.0187809,4.6530135 2.0947771,4.5454846 2.4375,4.0625 2.6240373,3.7996418 2.7962319,3.5570072 2.8203125,3.5234375 l 0.042969,-0.058594 0.050781,-0.03125 c 0.010393,-0.00603 0.019138,-0.00904 0.027344,-0.013671 z"
         id="path217" /></g><g
       id="path9"
       style="opacity:1"><path
         style="baseline-shift:baseline;display:inline;overflow:visible;vector-effect:none;fill:#ffffff;enable-background:accumulate;stop-color:#000000;stop-opacity:1"
         d="m 1.3359955,5.6721854 c -0.00987,-0.00734 -0.018903,-0.013658 -0.020182,-0.015034 -0.00274,-0.00366 0.0073,-0.018976 0.1978991,-0.2875743 C 1.604667,5.2412046 1.7301133,5.0640913 1.7925213,4.9759884 1.9137755,4.804806 2.2435859,4.3398802 2.3482475,4.1925959 2.3830404,4.1435532 2.4665614,4.0260246 2.5337453,3.9313857 2.6009566,3.8367469 2.7026503,3.6935877 2.7597891,3.6132674 l 0.1038763,-0.1460375 0.032967,-0.019525 c 0.018082,-0.010725 0.033514,-0.018976 0.034153,-0.018151 6.94e-4,7.7e-4 -0.010867,0.018609 -0.025661,0.039509 -0.014794,0.020993 -0.074517,0.1065928 -0.13277,0.1902773 C 2.714184,3.7430338 2.6196224,3.878557 2.5622827,3.9605456 2.5049339,4.0424974 2.4320151,4.1469632 2.4002175,4.1926052 2.3684382,4.2382561 2.3196735,4.3080895 2.2919306,4.3478188 2.2283721,4.4387542 2.0718957,4.6632328 1.873047,4.9487077 1.7883022,5.0704164 1.68754,5.2149507 1.649204,5.2698878 1.6108497,5.3247973 1.536141,5.4320223 1.483139,5.5080983 1.3622043,5.681664 1.3599761,5.6847808 1.3566521,5.6847716 c -0.00182,0 -0.010776,-0.00551 -0.020639,-0.012558 z"
         id="path214" /><path
         style="baseline-shift:baseline;display:inline;overflow:visible;vector-effect:none;enable-background:accumulate;stop-color:#000000;stop-opacity:1"
         d="m 2.9277344,3.421875 c -5.185e-4,1.676e-4 -0.00287,0.00148 -0.00391,0.00195 -0.00208,9.444e-4 -0.00464,0.00222 -0.00781,0.00391 -0.00635,0.00338 -0.01432,0.00826 -0.023437,0.013672 L 2.859375,3.4609375 2.7539063,3.609375 C 2.696764,3.6897001 2.5945555,3.8330949 2.5273438,3.9277344 2.4601616,4.0223708 2.3765951,4.1384497 2.3417969,4.1875 2.2371281,4.3347945 1.9083689,4.8014663 1.7871094,4.9726562 1.7247011,5.0607595 1.5987663,5.2368627 1.5078125,5.3652344 1.4125101,5.4995376 1.3620003,5.5714111 1.3359375,5.609375 1.3229061,5.628357 1.3162793,5.6379572 1.3125,5.6445312 c -9.448e-4,0.00164 -0.00135,0.00265 -0.00195,0.00391 -6.055e-4,0.00126 -0.00176,0.00326 -0.00195,0.00391 -1.922e-4,6.469e-4 -3.04e-5,0.00353 0,0.00391 3.05e-5,3.788e-4 0.00178,0.00563 0.00195,0.00586 0,0 0.00195,0.00195 0.00195,0.00195 0,0 0.00195,0 0.00195,0 0.00126,9.626e-4 0.00207,0.00256 0.00391,0.00391 0.00308,0.00225 0.00769,0.00484 0.011719,0.00781 l 0.00195,0.00195 c 0.00505,0.00361 0.00976,0.00737 0.013672,0.00977 0.00196,0.0012 0.00431,0.00118 0.00586,0.00195 0,0 0.00195,0.00195 0.00195,0.00195 1.68e-4,4.21e-5 0.00379,1e-7 0.00391,0 0,0 0.00195,0 0.00195,0 0,0 0.00195,-0.00195 0.00195,-0.00195 3.076e-4,-2.116e-4 0.00326,6.423e-4 0.00391,0 6.495e-4,-6.422e-4 0.00122,-0.00305 0.00195,-0.00391 0.00293,-0.00343 0.00559,-0.00825 0.013672,-0.019531 C 1.397011,5.6434502 1.427807,5.5985062 1.4882748,5.5117233 1.5412831,5.4356429 1.615949,5.3283379 1.6542969,5.2734375 1.6926361,5.2184957 1.7941595,5.0748364 1.8789062,4.953125 2.0777542,4.6676512 2.2352783,4.4424856 2.2988281,4.3515625 2.326571,4.3118332 2.3744645,4.2429254 2.40625,4.1972656 2.4380419,4.1516318 2.5110148,4.0467895 2.5683594,3.9648438 2.625704,3.8828481 2.7191652,3.7477679 2.7773438,3.6640625 c 0.05825,-0.08368 0.1180717,-0.1704889 0.1328125,-0.1914062 0.00744,-0.010517 0.0148,-0.020055 0.019531,-0.027344 0.00237,-0.00364 0.00453,-0.0055 0.00586,-0.00781 6.669e-4,-0.00115 0.0015,-0.00292 0.00195,-0.00391 0,0 0,-0.00195 0,-0.00195 0,0 0,-0.00195 0,-0.00195 0,0 -0.00586,0 -0.00586,0 -4.85e-5,-8.3e-6 -0.00188,-0.00782 -0.00195,-0.00781 z m 0.00391,0.00781 c 0,0 0.00586,-0.00391 0.00586,-0.00391 0,0 -0.00195,-0.00195 -0.00195,-0.00195 0,0 -0.00391,0.00586 -0.00391,0.00586 z m -0.021484,0.017578 c -0.0037,0.00548 -0.0071,0.011054 -0.011719,0.017578 C 2.8835902,3.4859124 2.823881,3.570608 2.765625,3.6542969 2.7074628,3.7379787 2.6139754,3.8750497 2.5566406,3.9570313 2.4992876,4.0389891 2.4263346,4.1418498 2.3945313,4.1875 2.3627581,4.233142 2.3128992,4.3040207 2.2851563,4.34375 2.2215891,4.4346977 2.066037,4.6598365 1.8671875,4.9453125 1.7824446,5.0670185 1.6809109,5.2106926 1.6425781,5.265625 1.6042174,5.3205436 1.5295646,5.4278301 1.4765625,5.5039062 1.4160955,5.5906887 1.385161,5.6358257 1.3691406,5.6582031 c -0.00801,0.011189 -0.011468,0.016952 -0.013672,0.019531 -7.978e-4,-4.446e-4 -9.085e-4,-0.00132 -0.00195,-0.00195 -0.00292,-0.00178 -0.00776,-0.00504 -0.011719,-0.00781 l -0.00195,-0.00195 c -0.00499,-0.00371 -0.010047,-0.00712 -0.013672,-0.00977 -4.531e-4,-3.311e-4 -0.00154,3.055e-4 -0.00195,0 1.942e-4,-4.036e-4 -2.991e-4,-0.00139 0,-0.00195 -3.737e-4,-2.767e-4 3.268e-4,-0.00171 0,-0.00195 0.00329,-0.00572 0.010477,-0.016277 0.023437,-0.035156 C 1.3735782,5.5794288 1.4242346,5.507342 1.5195312,5.3730469 1.6104863,5.2446735 1.7364204,5.0685713 1.7988281,4.9804687 1.920077,4.8092939 2.2488612,4.3445398 2.3535156,4.1972656 2.3883032,4.1482305 2.4718769,4.0301882 2.5390625,3.9355469 2.6062733,3.8409087 2.7084896,3.697503 2.765625,3.6171875 l 0.1035156,-0.1445312 0.03125,-0.019531 c 0.00388,-0.0023 0.00626,-0.00386 0.00977,-0.00586 z"
         id="path215" /></g><g
       id="path10"
       style="opacity:1"><path
         style="baseline-shift:baseline;display:inline;overflow:visible;vector-effect:none;fill:#ffffff;enable-background:accumulate;stop-color:#000000;stop-opacity:1"
         d="m 1.3408171,5.6639811 c -0.0073,-0.00459 -0.013058,-0.00981 -0.013058,-0.011458 C 1.3277406,5.6479352 1.4887008,5.419473 1.910114,4.8257984 1.994128,4.707463 2.1363948,4.5069099 2.2263082,4.3801228 2.3162582,4.2533449 2.4767709,4.0272071 2.5830762,3.8775944 2.6893907,3.7279909 2.7971845,3.576279 2.8226352,3.5404641 c 0.040546,-0.057018 0.048216,-0.066276 0.061824,-0.074527 0.00822,-0.00551 0.015889,-0.00916 0.016346,-0.00825 C 2.9014723,3.4584419 2.7595796,3.6633584 2.6864782,3.76721 2.6739677,3.784994 2.6126923,3.872785 2.5502109,3.962382 2.4877475,4.0519393 2.4284445,4.1370354 2.4183993,4.1514 2.3264494,4.283009 2.2824334,4.3461045 2.1729044,4.5033257 2.1034101,4.6030613 2.0272221,4.7123306 2.0035612,4.746138 1.9799092,4.7799637 1.9186338,4.8677734 1.8675129,4.9413101 1.8163739,5.0148284 1.7436011,5.1192759 1.7058404,5.1733696 1.6680341,5.2274542 1.5846775,5.3471004 1.5205071,5.4392366 1.3858652,5.6325295 1.3573461,5.6728546 1.3553645,5.6727354 c -7.945e-4,-5.49e-5 -0.0073,-0.00366 -0.014519,-0.00825 z"
         id="path212" /><path
         style="baseline-shift:baseline;display:inline;overflow:visible;vector-effect:none;enable-background:accumulate;stop-color:#000000;stop-opacity:1"
         d="m 2.8964844,3.4511719 c -0.0015,4.931e-4 -0.00222,0.00112 -0.00391,0.00195 -0.00338,0.00167 -0.00736,0.00294 -0.011719,0.00586 -0.00732,0.00444 -0.014455,0.010655 -0.023437,0.021484 -0.00898,0.010829 -0.020725,0.028107 -0.041016,0.056641 C 2.7909548,3.5729254 2.6844393,3.7234437 2.578125,3.8730469 2.4718176,4.0226625 2.3106541,4.2482207 2.2207031,4.375 2.1307903,4.5017863 1.988309,4.7039329 1.9042969,4.8222656 c -0.2107085,0.29684 -0.356293,0.500898 -0.4492188,0.6328125 -0.046463,0.065957 -0.079866,0.1151093 -0.1015625,0.1464844 -0.010848,0.015688 -0.018168,0.02724 -0.023437,0.035156 -0.00263,0.00396 -0.0045,0.00561 -0.00586,0.00781 -6.807e-4,0.0011 -0.00152,0.0031 -0.00195,0.00391 0,0 -0.00195,0 -0.00195,0 0,0 0,0.00195 0,0.00195 0,0 0,0.00195 0,0.00195 0,0 0,0.00195 0,0.00195 0,0 0.00195,0.00195 0.00195,0.00195 0,0 0,0.00195 0,0.00195 0.00103,0.00125 0.00254,0.0027 0.00391,0.00391 0.00189,0.00168 0.00528,0.0041 0.00781,0.00586 l 0.00391,0.00195 c 0.00372,0.00236 0.007,0.0043 0.00977,0.00586 0,0 0.00195,0.00195 0.00195,0.00195 0,0 0.00195,0.00195 0.00195,0.00195 0,0 0.00195,0 0.00195,0 0,0 0.00195,0 0.00195,0 0,0 0,-0.00781 0,-0.00781 4.43e-5,-1.83e-5 0.00385,0.0059 0.00391,0.00586 0,0 0.00195,0 0.00195,0 0,0 0.00195,-0.00195 0.00195,-0.00195 0.00141,-0.00168 0.00329,-0.00437 0.00586,-0.00781 0.00514,-0.00689 0.013273,-0.018022 0.025391,-0.035156 0.024236,-0.034268 0.065489,-0.092804 0.1328125,-0.1894531 0.06417,-0.092136 0.1457971,-0.2115542 0.1835938,-0.265625 C 1.748703,5.1236339 1.8219048,5.0188352 1.8730469,4.9453125 1.9241619,4.8717843 1.9861205,4.7838159 2.0097656,4.75 2.0334423,4.71617 2.1101923,4.6075495 2.1796875,4.5078125 2.2892158,4.3505923 2.3318792,4.2878577 2.4238281,4.15625 2.4339001,4.141847 2.4941781,4.056353 2.5566406,3.9667969 2.6191206,3.8772019 2.6808995,3.7891964 2.6933594,3.7714844 2.7299314,3.7195284 2.7835884,3.6424424 2.828125,3.578125 2.850393,3.545966 2.870403,3.51705 2.884766,3.496094 2.891946,3.485616 2.896411,3.476613 2.900391,3.470703 c 0.00199,-0.00296 0.0048,-0.00423 0.00586,-0.00586 0,0 0,-0.00195 0,-0.00195 0,0 0,-0.00195 0,-0.00195 0,0 0.00195,-0.00195 0.00195,-0.00195 v -0.00391 c 0,0 -0.00195,-0.00195 -0.00195,-0.00195 0,0 0,-0.00195 0,-0.00195 -2.82e-5,-1.96e-5 -0.00386,1.09e-5 -0.00391,0 0,0 -0.00195,0 -0.00195,0 -2.695e-4,2.35e-5 -0.00316,-2.466e-4 -0.00391,0 z m -0.027344,0.039063 c -0.014244,0.020773 -0.033035,0.048808 -0.054687,0.080078 C 2.7699343,3.634605 2.7162171,3.711776 2.6796875,3.7636719 2.6671264,3.7815278 2.6074044,3.8693858 2.5449219,3.9589844 2.4824575,4.0485431 2.422128,4.1321578 2.4121094,4.1464844 2.3201585,4.2780947 2.2755453,4.3427778 2.1660156,4.5 2.0965223,4.5997342 2.021692,4.7084027 1.9980469,4.7421875 1.974388,4.776023 1.9124549,4.8639548 1.8613281,4.9375 1.8101922,5.0110139 1.7369747,5.115835 1.6992187,5.1699219 1.6614028,5.2240202 1.5778428,5.3434099 1.5136719,5.4355469 1.446353,5.5321903 1.4069921,5.5908118 1.3828125,5.625 c -0.01209,0.017094 -0.020415,0.026527 -0.025391,0.033203 -0.00179,0.0024 -0.00286,0.00455 -0.00391,0.00586 -0.00179,-0.00101 -0.00344,-0.00242 -0.00586,-0.00391 l -0.00391,-0.00195 c -0.00333,-0.00209 -0.00584,-0.00411 -0.00781,-0.00586 0.0012,-0.00194 0.00327,-0.00392 0.00586,-0.00781 0.00518,-0.00778 0.012614,-0.019504 0.023437,-0.035156 C 1.3868755,5.578073 1.4203395,5.530787 1.466791,5.4648457 1.5596999,5.3329616 1.7053109,5.1269127 1.9160156,4.8300781 2.0000315,4.7117401 2.1425079,4.5115536 2.2324219,4.3847656 2.3223709,4.2579891 2.4835405,4.0304692 2.5898438,3.8808594 2.6961585,3.7312555 2.8026751,3.5807357 2.828125,3.5449219 2.84838,3.5164379 2.860749,3.5003519 2.8691404,3.4902349 Z"
         id="path213" /></g><g
       id="path17"
       style="opacity:1"><path
         style="baseline-shift:baseline;display:inline;overflow:visible;vector-effect:none;fill:#ffffff;enable-background:accumulate;stop-color:#000000;stop-opacity:1"
         d="m 2.8838927,3.4549371 c -0.01589,0.053351 -0.048217,0.1056208 -0.076892,0.1506026 -0.022191,0.034742 -0.051322,0.065819 -0.068673,0.1045026 -0.00548,0.01265 -0.00822,0.027408 -0.013698,0.039967 -0.00548,0.01265 -0.024747,0.04006 -0.024747,0.052251"
         id="path210" /><path
         style="baseline-shift:baseline;display:inline;overflow:visible;vector-effect:none;enable-background:accumulate;stop-color:#000000;stop-opacity:1"
         d="m 2.84375,3.4433594 c -0.013573,0.045572 -0.043828,0.094063 -0.072266,0.1386719 -0.019318,0.030244 -0.051151,0.064253 -0.072266,0.1113281 -0.0082,0.018926 -0.010976,0.032881 -0.013672,0.039063 1.12e-5,-2.58e-5 -0.00553,0.012242 -0.011719,0.023437 -0.00619,0.011195 -0.015625,0.018551 -0.015625,0.046875 h 0.083984 c 0,0.016133 0.00104,0.00286 0.00586,-0.00586 0.00482,-0.00872 0.010134,-0.016621 0.015625,-0.029297 0.00826,-0.018936 0.010911,-0.034642 0.013672,-0.041016 C 2.79093,3.6962694 2.816732,3.6681454 2.841796,3.6289054 2.870709,3.5835504 2.90562,3.5279257 2.923827,3.466796 Z"
         id="path211" /></g><g
       id="path18"
       style="opacity:1"><path
         style="baseline-shift:baseline;display:inline;overflow:visible;vector-effect:none;fill:#ffffff;enable-background:accumulate;stop-color:#000000;stop-opacity:1"
         d="M 2.7053442,3.7561424 2.5377816,3.9712983"
         id="path208" /><path
         style="baseline-shift:baseline;display:inline;overflow:visible;vector-effect:none;enable-background:accumulate;stop-color:#000000;stop-opacity:1"
         d="M 2.671875,3.7304688 2.5039063,3.9453125 2.5703125,3.9980469 2.7382813,3.78125 Z"
         id="path209" /></g><g
       id="path19"
       style="opacity:1"><path
         style="baseline-shift:baseline;display:inline;overflow:visible;vector-effect:none;fill:#ffffff;enable-background:accumulate;stop-color:#000000;stop-opacity:1"
         d="m 1.9471894,4.7735011 0.00822,0.00275"
         id="path206" /><path
         style="baseline-shift:baseline;display:inline;overflow:visible;vector-effect:none;enable-background:accumulate;stop-color:#000000;stop-opacity:1"
         d="m 1.9609375,4.734375 -0.027344,0.080078 0.00781,0.00195 0.027344,-0.080078 z"
         id="path207" /></g><g
       id="path20"
       style="opacity:1"><path
         style="baseline-shift:baseline;display:inline;overflow:visible;vector-effect:none;fill:#ffffff;enable-background:accumulate;stop-color:#000000;stop-opacity:1"
         d="M 2.5405212,3.9743691 1.9746584,4.8042378 1.340114,5.6494699"
         id="path204" /><path
         style="baseline-shift:baseline;display:inline;overflow:visible;vector-effect:none;enable-background:accumulate;stop-color:#000000;stop-opacity:1"
         d="M 2.5058594,3.9511719 1.9394531,4.7792969 1.3066406,5.625 1.3730469,5.6738281 2.0097656,4.828125 2.5761719,3.9980469 Z"
         id="path205" /></g><g
       id="path21"
       style="opacity:1"><path
         style="baseline-shift:baseline;display:inline;overflow:visible;vector-effect:none;fill:#ffffff;enable-background:accumulate;stop-color:#000000;stop-opacity:1"
         d="M 2.9000927,3.4572287 3.04383,3.3235665"
         id="path202" /><path
         style="baseline-shift:baseline;display:inline;overflow:visible;vector-effect:none;enable-background:accumulate;stop-color:#000000;stop-opacity:1"
         d="m 3.015625,3.2929688 -0.1445312,0.1328125 0.058594,0.0625 0.1425781,-0.1347657 z"
         id="path203" /></g><g
       id="path22"
       style="opacity:1"><path
         style="baseline-shift:baseline;display:inline;overflow:visible;vector-effect:none;fill:#ffffff;enable-background:accumulate;stop-color:#000000;stop-opacity:1"
         d="M 3.1739606,3.1496983 4.8735397,5.8750852 5.0250484,5.7425046 3.5469013,3.4474477 Z"
         id="path200" /><path
         style="baseline-shift:baseline;display:inline;overflow:visible;vector-effect:none;enable-background:accumulate;stop-color:#000000;stop-opacity:1"
         d="M 3.2011719,3.1171875 3.1386719,3.171875 4.8632812,5.9394531 5.0800781,5.75 3.578125,3.4179688 Z m 0.1386719,0.21875 0.1757812,0.140625 1.4550781,2.2578125 -0.087891,0.076172 z"
         id="path201" /></g><g
       id="path23"
       style="opacity:1"><path
         style="baseline-shift:baseline;display:inline;overflow:visible;vector-effect:none;fill:#ffffff;enable-background:accumulate;stop-color:#000000;stop-opacity:1"
         d="m 3.3448929,3.3409561 1.5364182,2.4558806 0.040819,0.013017 0.036893,-0.076084"
         id="path198" /><path
         style="baseline-shift:baseline;display:inline;overflow:visible;vector-effect:none;enable-background:accumulate;stop-color:#000000;stop-opacity:1"
         d="m 3.3808594,3.3183594 -0.072266,0.044922 1.5449218,2.4687499 0.089844,0.029297 0.052734,-0.109375 -0.074219,-0.037109 -0.019531,0.039063 z"
         id="path199" /></g><g
       id="path24"
       style="opacity:1"><path
         style="baseline-shift:baseline;display:inline;overflow:visible;vector-effect:none;fill:#ffffff;enable-background:accumulate;stop-color:#000000;stop-opacity:1"
         d="M 4.9784297,5.7099071 4.9570608,5.7316328 3.4459017,3.4191864"
         id="path196" /><path
         style="baseline-shift:baseline;display:inline;overflow:visible;vector-effect:none;enable-background:accumulate;stop-color:#000000;stop-opacity:1"
         d="m 3.4804688,3.3964844 -0.070312,0.044922 1.5410156,2.3574218 0.056641,-0.058594 -0.03125,-0.033203 0.015625,0.00195 z"
         id="path197" /></g><g
       id="path25"
       style="opacity:1"><path
         style="baseline-shift:baseline;display:inline;overflow:visible;vector-effect:none;fill:#ffffff;enable-background:accumulate;stop-color:#000000;stop-opacity:1"
         d="M 4.9046159,5.7577216 4.4889467,5.0883286"
         id="path194" /><path
         style="baseline-shift:baseline;display:inline;overflow:visible;vector-effect:none;enable-background:accumulate;stop-color:#000000;stop-opacity:1"
         d="M 4.5253906,5.0664062 4.4531246,5.1113282 4.8691402,5.779297 4.9414062,5.736328 Z"
         id="path195" /></g><g
       id="path26"
       style="opacity:1"><path
         style="baseline-shift:baseline;display:inline;overflow:visible;vector-effect:none;fill:#ffffff;enable-background:accumulate;stop-color:#000000;stop-opacity:1"
         d="M 0.49681181,4.7320026 0.4061587,4.5552744 2.9855315,3.0845676 2.9827918,3.2628359 Z"
         id="path192" /><path
         style="baseline-shift:baseline;display:inline;overflow:visible;vector-effect:none;enable-background:accumulate;stop-color:#000000;stop-opacity:1"
         d="M 3.0292969,3.0117188 0.34960938,4.5390625 0.48046875,4.7910156 3.0253906,3.2871094 Z m -0.085937,0.1464843 -0.00195,0.080078 -2.42773443,1.4335937 -0.0507812,-0.099609 z"
         id="path193" /></g><g
       id="path27"
       style="opacity:1"><path
         style="baseline-shift:baseline;display:inline;overflow:visible;vector-effect:none;fill:#ffffff;enable-background:accumulate;stop-color:#000000;stop-opacity:1"
         d="M 2.942949,3.1552626 0.46522249,4.5767891 0.5119234,4.6689987 2.9402003,3.2397813 Z"
         id="path190" /><path
         style="baseline-shift:baseline;display:inline;overflow:visible;vector-effect:none;enable-background:accumulate;stop-color:#000000;stop-opacity:1"
         d="M 2.9882813,3.0800781 0.41015625,4.5605469 0.49414063,4.7285156 2.9824219,3.2636719 Z M 1.9121094,3.796875 0.52929687,4.609375 0.52148437,4.59375 Z"
         id="path191" /></g><g
       id="path28"
       style="opacity:1"><path
         style="baseline-shift:baseline;display:inline;overflow:visible;vector-effect:none;fill:#ffffff;enable-background:accumulate;stop-color:#000000;stop-opacity:1"
         d="M 0.52428079,4.6059855 1.7494091,3.8929214"
         id="path188" /><path
         style="baseline-shift:baseline;display:inline;overflow:visible;vector-effect:none;enable-background:accumulate;stop-color:#000000;stop-opacity:1"
         d="M 1.7285156,3.8574219 0.50390625,4.5703125 0.54492187,4.6425781 1.7714844,3.9296875 Z"
         id="path189" /></g><g
       id="path29"
       style="opacity:1"><path
         style="baseline-shift:baseline;display:inline;overflow:visible;vector-effect:none;fill:#ffffff;enable-background:accumulate;stop-color:#000000;stop-opacity:1"
         d="M 5.7602271,4.8383935 5.8534645,4.6417089 3.380398,3.0807267 3.5788631,3.4211205 Z"
         id="path186" /><path
         style="baseline-shift:baseline;display:inline;overflow:visible;vector-effect:none;enable-background:accumulate;stop-color:#000000;stop-opacity:1"
         d="M 3.4023438,3.0449219 3.34375,3.1015625 3.546875,3.4511719 5.7773437,4.9003906 5.9082031,4.6269531 Z M 3.5039063,3.2089844 5.7988281,4.6582031 5.7421875,4.7773437 3.609375,3.390625 Z"
         id="path187" /></g><g
       id="path30"
       style="opacity:1"><path
         style="baseline-shift:baseline;display:inline;overflow:visible;vector-effect:none;fill:#ffffff;enable-background:accumulate;stop-color:#000000;stop-opacity:1"
         d="M 5.7406938,4.7735011 3.6118296,3.3780911 3.5129395,3.2244175 5.7599257,4.7335427 5.801111,4.6474657 4.5649886,3.8852121"
         id="path184" /><path
         style="baseline-shift:baseline;display:inline;overflow:visible;vector-effect:none;enable-background:accumulate;stop-color:#000000;stop-opacity:1"
         d="m 3.5371094,3.1894531 -0.060547,0.058594 0.1054688,0.1601562 2.1347656,1.4003906 0.025391,-0.037109 0.035156,0.023437 0.078125,-0.1640625 -1.2675781,-0.78125 -0.019531,0.033203 z m 2.0234375,1.3613281 0.1855468,0.1132813 -0.00391,0.00781 z"
         id="path185" /></g><g
       id="path31"
       style="opacity:1"><path
         style="baseline-shift:baseline;display:inline;overflow:visible;vector-effect:none;fill:#ffffff;enable-background:accumulate;stop-color:#000000;stop-opacity:1"
         d="m 5.6198322,4.5767891 0.1510793,0.098361"
         id="path182" /><path
         style="baseline-shift:baseline;display:inline;overflow:visible;vector-effect:none;enable-background:accumulate;stop-color:#000000;stop-opacity:1"
         d="m 5.6425781,4.5410156 -0.044922,0.070312 0.1503907,0.099609 0.044922,-0.070312 z"
         id="path183" /></g><g
       id="path32"
       style="opacity:1"><path
         style="baseline-shift:baseline;display:inline;overflow:visible;vector-effect:none;fill:#ffffff;enable-background:accumulate;stop-color:#000000;stop-opacity:1"
         d="M 5.9962245,1.6044465 5.9069139,1.4175429 3.5644163,2.75632 3.4070816,3.041034 Z"
         id="path180" /><path
         style="baseline-shift:baseline;display:inline;overflow:visible;vector-effect:none;enable-background:accumulate;stop-color:#000000;stop-opacity:1"
         d="M 5.9257812,1.3574219 3.5332031,2.7246094 3.2988281,3.1484375 6.0507812,1.6230469 Z m -0.037109,0.1191406 0.052734,0.1113281 -2.4277343,1.3457032 0.082031,-0.1464844 z"
         id="path181" /></g><g
       id="path33"
       style="opacity:1"><path
         style="baseline-shift:baseline;display:inline;overflow:visible;vector-effect:none;fill:#ffffff;enable-background:accumulate;stop-color:#000000;stop-opacity:1"
         d="M 5.9398986,1.5805392 3.5216514,2.9258431 3.6362485,2.7606743 5.8874538,1.4783927 Z"
         id="path178" /><path
         style="baseline-shift:baseline;display:inline;overflow:visible;vector-effect:none;enable-background:accumulate;stop-color:#000000;stop-opacity:1"
         d="M 5.9042969,1.4199219 3.6074219,2.7285156 3.4863281,2.9023438 3.5429691,2.9628908 5.996094,1.5976564 Z m -0.035156,0.1171875 0.013672,0.025391 -2.2226562,1.2382813 0.00586,-0.00781 z"
         id="path179" /></g><g
       id="path34"
       style="opacity:1"><path
         style="baseline-shift:baseline;display:inline;overflow:visible;vector-effect:none;fill:#ffffff;enable-background:accumulate;stop-color:#000000;stop-opacity:1"
         d="M 5.8777465,1.5501143 3.6673246,2.7976168"
         id="path176" /><path
         style="baseline-shift:baseline;display:inline;overflow:visible;vector-effect:none;enable-background:accumulate;stop-color:#000000;stop-opacity:1"
         d="M 5.8574219,1.5136719 3.6464844,2.7617188 3.6875,2.8339844 5.8984375,1.5859375 Z"
         id="path177" /></g><g
       id="path35"
       style="opacity:1"><path
         style="baseline-shift:baseline;display:inline;overflow:visible;vector-effect:none;fill:#ffffff;enable-background:accumulate;stop-color:#000000;stop-opacity:1"
         d="M 5.010008,0.35214976 5.1555991,0.48277783 3.5371849,2.7215499 3.1972745,2.9149803 Z"
         id="path174" /><path
         style="baseline-shift:baseline;display:inline;overflow:visible;vector-effect:none;enable-background:accumulate;stop-color:#000000;stop-opacity:1"
         d="M 5.0019531,0.2890625 3.1621094,2.890625 3.21875,2.9511719 3.5664063,2.7539063 5.2128906,0.4765625 Z m 0.015625,0.125 0.082031,0.0742188 -1.5917969,2.2011719 -0.1660156,0.09375 z"
         id="path175" /></g><g
       id="path36"
       style="opacity:1"><path
         style="baseline-shift:baseline;display:inline;overflow:visible;vector-effect:none;fill:#ffffff;enable-background:accumulate;stop-color:#000000;stop-opacity:1"
         d="M 5.0133867,0.40910359 3.3526642,2.7758821 3.5197062,2.6824258 5.0949719,0.49169721 Z"
         id="path172" /><path
         style="baseline-shift:baseline;display:inline;overflow:visible;vector-effect:none;enable-background:accumulate;stop-color:#000000;stop-opacity:1"
         d="M 5.0078125,0.34375 3.3183594,2.7519531 3.3730469,2.8125 3.5488281,2.7148438 5.1503906,0.48828125 Z m 0.011719,0.1328125 0.019531,0.0195313 -1.4589844,2.0312501 z"
         id="path173" /></g><g
       id="path37"
       style="opacity:1"><path
         style="baseline-shift:baseline;display:inline;overflow:visible;vector-effect:none;fill:#ffffff;enable-background:accumulate;stop-color:#000000;stop-opacity:1"
         d="M 5.0367008,0.47648018 3.5061088,2.6215759"
         id="path170" /><path
         style="baseline-shift:baseline;display:inline;overflow:visible;vector-effect:none;enable-background:accumulate;stop-color:#000000;stop-opacity:1"
         d="M 5.0019531,0.45117188 3.4726563,2.5976563 3.5410156,2.6464844 5.0703125,0.50195312 Z"
         id="path171" /></g><g
       id="path38"
       style="opacity:1"><path
         style="baseline-shift:baseline;display:inline;overflow:visible;vector-effect:none;fill:#ffffff;enable-background:accumulate;stop-color:#000000;stop-opacity:1"
         d="M 1.3636746,0.41344869 1.5248904,0.28414067 3.1681344,2.8856371 2.8884404,2.761756 Z"
         id="path168" /><path
         style="baseline-shift:baseline;display:inline;overflow:visible;vector-effect:none;enable-background:accumulate;stop-color:#000000;stop-opacity:1"
         d="M 1.5351562,0.22070313 1.3066406,0.40429688 2.859375,2.7949219 3.2773438,2.9804688 Z M 1.5136719,0.34765625 3.0585938,2.7910156 2.9179688,2.7285156 1.4199219,0.42382813 Z"
         id="path169" /></g><g
       id="path39"
       style="opacity:1"><path
         style="baseline-shift:baseline;display:inline;overflow:visible;vector-effect:none;fill:#ffffff;enable-background:accumulate;stop-color:#000000;stop-opacity:1"
         d="m 1.4180645,0.4243206 1.4985388,2.3026653 0.137902,0.059768 -1.5393222,-2.43850006 -0.089311,0.074985 z"
         id="path166" /><path
         style="baseline-shift:baseline;display:inline;overflow:visible;vector-effect:none;enable-background:accumulate;stop-color:#000000;stop-opacity:1"
         d="m 1.5253906,0.28515625 -0.1171875,0.0976563 -0.0625,0.009766 L 2.8886719,2.759766 3.1640625,2.8789067 Z M 1.5058594,0.41210938 2.9453125,2.6933594 1.4765625,0.43554688 Z"
         id="path167" /></g><g
       id="path40"
       style="opacity:1"><path
         style="baseline-shift:baseline;display:inline;overflow:visible;vector-effect:none;fill:#ffffff;enable-background:accumulate;stop-color:#000000;stop-opacity:1"
         d="M 1.4928462,0.42649316 2.9443188,2.6911526"
         id="path164" /><path
         style="baseline-shift:baseline;display:inline;overflow:visible;vector-effect:none;enable-background:accumulate;stop-color:#000000;stop-opacity:1"
         d="m 1.5292969,0.40429688 -0.072266,0.0449219 1.4511719,2.26562502 0.072266,-0.046875 z"
         id="path165" /></g><g
       id="path42"
       style="opacity:1"><path
         style="baseline-shift:baseline;display:inline;overflow:visible;vector-effect:none;fill:#ffffff;enable-background:accumulate;stop-color:#000000;stop-opacity:1"
         d="m 0.48170388,1.5062875 0.10988048,-0.1721266 2.27032754,1.461485 0.09752,0.2520342 z"
         id="path162" /><path
         style="baseline-shift:baseline;display:inline;overflow:visible;vector-effect:none;enable-background:accumulate;stop-color:#000000;stop-opacity:1"
         d="M 0.578125,1.2753906 0.42382813,1.5195312 3.0449219,3.1503906 2.8964844,2.7675781 Z M 0.60546875,1.3925781 2.828125,2.8242188 2.875,2.9453125 0.54101562,1.4941406 Z"
         id="path163" /></g><g
       id="path43"
       style="opacity:1"><path
         style="baseline-shift:baseline;display:inline;overflow:visible;vector-effect:none;fill:#ffffff;enable-background:accumulate;stop-color:#000000;stop-opacity:1"
         d="M 0.54302418,1.4892646 2.8758107,2.9421418 2.8320687,2.8269599 0.60320023,1.3936357 Z"
         id="path160" /><path
         style="baseline-shift:baseline;display:inline;overflow:visible;vector-effect:none;enable-background:accumulate;stop-color:#000000;stop-opacity:1"
         d="M 0.58984375,1.3359375 0.484375,1.5019531 2.9589844,3.0449219 2.8671875,2.7988281 Z M 0.61523437,1.453125 2.1914063,2.4667969 0.6015625,1.4765625 Z"
         id="path161" /></g><g
       id="path44"
       style="opacity:1"><path
         style="baseline-shift:baseline;display:inline;overflow:visible;vector-effect:none;fill:#ffffff;enable-background:accumulate;stop-color:#000000;stop-opacity:1"
         d="M 0.61004008,1.4631757 2.1076017,2.4129378"
         id="path158" /><path
         style="baseline-shift:baseline;display:inline;overflow:visible;vector-effect:none;enable-background:accumulate;stop-color:#000000;stop-opacity:1"
         d="m 0.6328125,1.4277344 -0.0449219,0.070312 1.4980469,0.9511719 0.044922,-0.072266 z"
         id="path159" /></g><g
       id="path45"
       style="opacity:1"><path
         style="baseline-shift:baseline;display:inline;overflow:visible;vector-effect:none;fill:#ffffff;enable-background:accumulate;stop-color:#000000;stop-opacity:1"
         d="M 2.9154801,2.8233115 3.1297436,3.1798482 3.0294745,3.2320995 2.9814403,2.8448262 3.1957038,3.118375 3.040506,3.1676013 3.3536505,3.1214918 3.4882467,3.3443295 3.0734632,2.8955832 3.3646362,3.0308223 3.3028127,3.0815151 3.2547786,3.023122"
         id="path156" /><path
         style="baseline-shift:baseline;display:inline;overflow:visible;vector-effect:none;enable-background:accumulate;stop-color:#000000;stop-opacity:1"
         d="M 2.9199219,2.6992188 2.9335938,2.8125 2.8789063,2.8457031 2.953125,2.96875 2.994141,3.296875 3.1894535,3.197266 l -0.00391,-0.00781 0.089844,-0.013672 0.1757813,0.1894531 0.00586,0.00781 0.066406,-0.050781 -0.00391,-0.00586 L 3.375,3.0761719 3.4433594,3.0214844 3.0917969,2.8574219 l -0.023437,0.03125 z m 0.3261719,0.3222656 0.00781,0.00391 -0.00195,0.00195 z"
         id="path157" /></g><g
       id="path46"
       style="opacity:1"><path
         style="baseline-shift:baseline;display:inline;overflow:visible;vector-effect:none;fill:#ffffff;enable-background:accumulate;stop-color:#000000;stop-opacity:1"
         d="m 3.4992051,2.8033369 -0.050774,0.033826 -0.1881643,0.1536736 0.00182,-0.064534 0.1222406,0.056834 0.056344,-0.076818"
         id="path154" /><path
         style="baseline-shift:baseline;display:inline;overflow:visible;vector-effect:none;enable-background:accumulate;stop-color:#000000;stop-opacity:1"
         d="m 3.4765625,2.7675781 -0.052734,0.035156 -0.1171875,0.097656 -0.083984,-0.039063 -0.00781,0.2207032 0.1015625,-0.083984 0.082031,0.037109 0.076172,-0.1035157 -0.039063,-0.029297 0.037109,-0.03125 0.050781,-0.033203 z"
         id="path155" /></g><g
       id="path47"
       style="opacity:1"><path
         style="baseline-shift:baseline;display:inline;overflow:visible;vector-effect:none;fill:#ffffff;enable-background:accumulate;stop-color:#000000;stop-opacity:1"
         d="m 3.4840916,2.8878556 -0.065932,0.021543"
         id="path152" /><path
         style="baseline-shift:baseline;display:inline;overflow:visible;vector-effect:none;enable-background:accumulate;stop-color:#000000;stop-opacity:1"
         d="m 3.4707031,2.8476563 -0.066406,0.021484 0.027344,0.080078 0.066406,-0.021484 z"
         id="path153" /></g><g
       id="path48"
       style="opacity:1"><path
         style="baseline-shift:baseline;display:inline;overflow:visible;vector-effect:none;fill:#ffffff;enable-background:accumulate;stop-color:#000000;stop-opacity:1"
         d="m 3.6942366,2.7864332 -0.067302,0.023009"
         id="path150" /><path
         style="baseline-shift:baseline;display:inline;overflow:visible;vector-effect:none;enable-background:accumulate;stop-color:#000000;stop-opacity:1"
         d="m 3.6796875,2.7460938 -0.066406,0.023437 0.027344,0.080078 0.066406,-0.023437 z"
         id="path151" /></g><g
       id="path49"
       style="opacity:1"><path
         style="baseline-shift:baseline;display:inline;overflow:visible;vector-effect:none;fill:#ffffff;enable-background:accumulate;stop-color:#000000;stop-opacity:1"
         d="M 3.3632299,2.7695295 3.320674,2.8017966"
         id="path148" /><path
         style="baseline-shift:baseline;display:inline;overflow:visible;vector-effect:none;enable-background:accumulate;stop-color:#000000;stop-opacity:1"
         d="m 3.3378906,2.7363281 -0.042969,0.03125 0.050781,0.068359 0.042969,-0.033203 z"
         id="path149" /></g><g
       id="path50"
       style="opacity:1"><path
         style="baseline-shift:baseline;display:inline;overflow:visible;vector-effect:none;fill:#ffffff;enable-background:accumulate;stop-color:#000000;stop-opacity:1"
         d="m 3.5156882,3.1952119 -0.00958,0.039968"
         id="path146" /><path
         style="baseline-shift:baseline;display:inline;overflow:visible;vector-effect:none;enable-background:accumulate;stop-color:#000000;stop-opacity:1"
         d="m 3.4746094,3.1855469 -0.00977,0.039063 0.082031,0.019531 0.00977,-0.039063 z"
         id="path147" /></g><g
       id="path51"
       style="opacity:1"><path
         style="baseline-shift:baseline;display:inline;overflow:visible;vector-effect:none;fill:#ffffff;enable-background:accumulate;stop-color:#000000;stop-opacity:1"
         d="m 3.3522442,3.3150872 -0.0073,0.039967"
         id="path144" /><path
         style="baseline-shift:baseline;display:inline;overflow:visible;vector-effect:none;enable-background:accumulate;stop-color:#000000;stop-opacity:1"
         d="m 3.3105469,3.3066406 -0.00781,0.041016 0.083984,0.015625 0.00781,-0.041016 z"
         id="path145" /></g><g
       id="path52"
       style="opacity:1"><path
         style="baseline-shift:baseline;display:inline;overflow:visible;vector-effect:none;fill:#ffffff;enable-background:accumulate;stop-color:#000000;stop-opacity:1"
         d="m 3.4470066,3.4011458 -0.010958,0.033826"
         id="path142" /><path
         style="baseline-shift:baseline;display:inline;overflow:visible;vector-effect:none;enable-background:accumulate;stop-color:#000000;stop-opacity:1"
         d="m 3.40625,3.3886719 -0.00977,0.033203 0.080078,0.025391 0.00977,-0.033203 z"
         id="path143" /></g><g
       id="path53"
       style="opacity:1"><path
         style="baseline-shift:baseline;display:inline;overflow:visible;vector-effect:none;fill:#ffffff;enable-background:accumulate;stop-color:#000000;stop-opacity:1"
         d="m 2.5666203,3.9205779 -0.050774,0.09221"
         id="path140" /><path
         style="baseline-shift:baseline;display:inline;overflow:visible;vector-effect:none;enable-background:accumulate;stop-color:#000000;stop-opacity:1"
         d="m 2.5292969,3.9003906 -0.050781,0.091797 0.074219,0.041016 0.050781,-0.091797 z"
         id="path141" /></g><g
       id="path54"
       style="opacity:1"><path
         style="baseline-shift:baseline;display:inline;overflow:visible;vector-effect:none;fill:#ffffff;enable-background:accumulate;stop-color:#000000;stop-opacity:1"
         d="m 1.3869885,5.6164509 -0.085475,0.053259"
         id="path138" /><path
         style="baseline-shift:baseline;display:inline;overflow:visible;vector-effect:none;enable-background:accumulate;stop-color:#000000;stop-opacity:1"
         d="m 1.3652344,5.5800781 -0.085937,0.054687 0.044922,0.070312 0.085937,-0.052734 z"
         id="path139" /></g><g
       id="path57"
       style="opacity:1"><path
         style="baseline-shift:baseline;display:inline;overflow:visible;vector-effect:none;fill:#ffffff;enable-background:accumulate;stop-color:#000000;stop-opacity:1"
         d="M 0.65612916,1.4847636 0.56273829,1.4402123"
         id="path136" /><path
         style="baseline-shift:baseline;display:inline;overflow:visible;vector-effect:none;enable-background:accumulate;stop-color:#000000;stop-opacity:1"
         d="m 0.58007812,1.4023437 -0.0351563,0.076172 0.09375,0.044922 0.0351563,-0.076172 z"
         id="path137" /></g><g
       id="path58"
       style="opacity:1"><path
         style="baseline-shift:baseline;display:inline;overflow:visible;vector-effect:none;fill:#ffffff;enable-background:accumulate;stop-color:#000000;stop-opacity:1"
         d="M 1.5131741,0.46126316 1.4719888,0.37216109"
         id="path134" /><path
         style="baseline-shift:baseline;display:inline;overflow:visible;vector-effect:none;enable-background:accumulate;stop-color:#000000;stop-opacity:1"
         d="m 1.5097656,0.35351563 -0.076172,0.0371094 0.041016,0.0878906 0.076172,-0.0351563 z"
         id="path135" /></g><g
       id="path59"
       style="opacity:1"><path
         style="baseline-shift:baseline;display:inline;overflow:visible;vector-effect:none;enable-background:accumulate;stop-color:#000000;stop-opacity:1"
         d="M 5.2214602,0.36923361 A 0.10321841,0.10879566 0 0 1 5.1182418,0.47802927 0.10321841,0.10879566 0 0 1 5.0150234,0.36923361 0.10321841,0.10879566 0 0 1 5.1182418,0.26043795 0.10321841,0.10879566 0 0 1 5.2214602,0.36923361 Z"
         id="path132" /><path
         style="baseline-shift:baseline;display:inline;overflow:visible;vector-effect:none;enable-background:accumulate;stop-color:#000000;stop-opacity:1"
         d="m 5.1191406,0.22460938 c -0.077571,0 -0.140625,0.0659341 -0.140625,0.14453125 0,0.0785972 0.063054,0.14453124 0.140625,0.14453124 0.077571,0 0.1386719,-0.0659341 0.1386719,-0.14453124 0,-0.0785972 -0.061101,-0.14453126 -0.1386719,-0.14453125 z m 0,0.0722656 c 0.036441,0 0.066406,0.0306904 0.066406,0.0722656 0,0.0415752 -0.029966,0.0722656 -0.066406,0.0722656 -0.03644,0 -0.068359,-0.0306904 -0.068359,-0.0722656 0,-0.0415752 0.031919,-0.0722656 0.068359,-0.0722656 z"
         id="path133" /></g><g
       id="path59-2"
       style="opacity:1"><path
         style="baseline-shift:baseline;display:inline;overflow:visible;vector-effect:none;enable-background:accumulate;stop-color:#000000;stop-opacity:1"
         d="M 6.0886673,1.492224 A 0.10535706,0.11042023 0 0 1 5.9833102,1.6026442 0.10535706,0.11042023 0 0 1 5.8779532,1.492224 0.10535706,0.11042023 0 0 1 5.9833102,1.3818038 0.10535706,0.11042023 0 0 1 6.0886673,1.492224 Z"
         id="path130" /><path
         style="baseline-shift:baseline;display:inline;overflow:visible;vector-effect:none;enable-background:accumulate;stop-color:#000000;stop-opacity:1"
         d="m 5.9824219,1.3457031 c -0.079,0 -0.140625,0.066553 -0.140625,0.1464844 0,0.079932 0.061625,0.1464844 0.140625,0.1464844 0.079,0 0.1425781,-0.066553 0.1425781,-0.1464844 0,-0.079932 -0.063578,-0.1464844 -0.1425781,-0.1464844 z m 0,0.072266 c 0.037374,0 0.070312,0.032184 0.070312,0.074219 0,0.042035 -0.032939,0.074219 -0.070312,0.074219 -0.037374,0 -0.068359,-0.032184 -0.068359,-0.074219 0,-0.042035 0.030985,-0.074219 0.068359,-0.074219 z"
         id="path131" /></g><g
       id="path59-2-0"
       style="opacity:1"><path
         style="baseline-shift:baseline;display:inline;overflow:visible;vector-effect:none;enable-background:accumulate;stop-color:#000000;stop-opacity:1"
         d="M 5.9351861,4.756876 A 0.10042976,0.1180726 0 0 1 5.8347564,4.8749486 0.10042976,0.1180726 0 0 1 5.7343266,4.756876 0.10042976,0.1180726 0 0 1 5.8347564,4.6388034 0.10042976,0.1180726 0 0 1 5.9351861,4.756876 Z"
         id="path128" /><path
         style="baseline-shift:baseline;display:inline;overflow:visible;vector-effect:none;enable-background:accumulate;stop-color:#000000;stop-opacity:1"
         d="m 5.8339844,4.6015625 c -0.079038,0 -0.1367188,0.073987 -0.1367188,0.15625 0,0.082263 0.057681,0.1542969 0.1367188,0.1542969 0.079038,0 0.1386718,-0.072033 0.1386718,-0.1542969 0,-0.082263 -0.059634,-0.15625 -0.1386718,-0.15625 z m 0,0.074219 c 0.031894,0 0.064453,0.033875 0.064453,0.082031 0,0.048156 -0.032559,0.080078 -0.064453,0.080078 -0.031894,0 -0.0625,-0.031922 -0.0625,-0.080078 0,-0.048156 0.030606,-0.082031 0.0625,-0.082031 z"
         id="path129" /></g><g
       id="path59-2-0-6"
       style="opacity:1"><path
         style="baseline-shift:baseline;display:inline;overflow:visible;vector-effect:none;enable-background:accumulate;stop-color:#000000;stop-opacity:1"
         d="M 5.0625456,5.8282385 A 0.10015856,0.11858416 0 0 1 4.9623871,5.9468227 0.10015856,0.11858416 0 0 1 4.8622285,5.8282385 0.10015856,0.11858416 0 0 1 4.9623871,5.7096543 0.10015856,0.11858416 0 0 1 5.0625456,5.8282385 Z"
         id="path126" /><path
         style="baseline-shift:baseline;display:inline;overflow:visible;vector-effect:none;enable-background:accumulate;stop-color:#000000;stop-opacity:1"
         d="m 4.9628906,5.671875 c -0.079073,0 -0.1386719,0.07381 -0.1386719,0.15625 0,0.08244 0.059599,0.15625 0.1386719,0.15625 0.079073,0 0.1367188,-0.07381 0.1367188,-0.15625 0,-0.08244 -0.057646,-0.15625 -0.1367188,-0.15625 z m 0,0.074219 c 0.031559,0 0.0625,0.033487 0.0625,0.082031 0,0.048544 -0.030941,0.082031 -0.0625,0.082031 -0.031559,0 -0.064453,-0.033487 -0.064453,-0.082031 0,-0.048544 0.032894,-0.082031 0.064453,-0.082031 z"
         id="path127" /></g><g
       id="path59-2-0-6-7"
       style="opacity:1"><path
         style="baseline-shift:baseline;display:inline;overflow:visible;vector-effect:none;enable-background:accumulate;stop-color:#000000;stop-opacity:1"
         d="M 1.3738049,5.7585249 A 0.10212328,0.11071337 0 0 1 1.2716817,5.8692383 0.10212328,0.11071337 0 0 1 1.1695584,5.7585249 0.10212328,0.11071337 0 0 1 1.2716817,5.6478115 0.10212328,0.11071337 0 0 1 1.3738049,5.7585249 Z"
         id="path124" /><path
         style="baseline-shift:baseline;display:inline;overflow:visible;vector-effect:none;enable-background:accumulate;stop-color:#000000;stop-opacity:1"
         d="m 1.2714844,5.6113281 c -0.077626,0 -0.1386719,0.06728 -0.1386719,0.1464844 0,0.079204 0.061046,0.1484375 0.1386719,0.1484375 0.077626,0 0.1386718,-0.069233 0.1386718,-0.1484375 0,-0.079204 -0.061046,-0.1464844 -0.1386718,-0.1464844 z m 0,0.072266 c 0.035177,0 0.066406,0.031132 0.066406,0.074219 0,0.043087 -0.03123,0.076172 -0.066406,0.076172 -0.035177,0 -0.066406,-0.033085 -0.066406,-0.076172 0,-0.043087 0.03123,-0.074219 0.066406,-0.074219 z"
         id="path125" /></g><g
       id="path59-2-0-6-7-1"
       style="opacity:1"><path
         style="baseline-shift:baseline;display:inline;overflow:visible;vector-effect:none;enable-background:accumulate;stop-color:#000000;stop-opacity:1"
         d="M 2.5213658,5.0405297 A 0.10135949,0.11024454 0 0 1 2.4200063,5.1507743 0.10135949,0.11024454 0 0 1 2.3186468,5.0405297 0.10135949,0.11024454 0 0 1 2.4200063,4.9302852 0.10135949,0.11024454 0 0 1 2.5213658,5.0405297 Z"
         id="path122" /><path
         style="baseline-shift:baseline;display:inline;overflow:visible;vector-effect:none;enable-background:accumulate;stop-color:#000000;stop-opacity:1"
         d="m 2.4199219,4.8945312 c -0.077148,0 -0.1367188,0.067704 -0.1367188,0.1464844 0,0.078781 0.05957,0.1464844 0.1367188,0.1464844 0.077148,0 0.1367187,-0.067704 0.1367187,-0.1464844 0,-0.078781 -0.05957,-0.1464843 -0.1367187,-0.1464844 z m 0,0.072266 c 0.03481,0 0.066406,0.031227 0.066406,0.074219 0,0.042992 -0.031596,0.074219 -0.066406,0.074219 -0.03481,0 -0.064453,-0.031227 -0.064453,-0.074219 0,-0.042992 0.029643,-0.074219 0.064453,-0.074219 z"
         id="path123" /></g><g
       id="path59-2-0-6-7-1-1"
       style="opacity:1"><path
         style="baseline-shift:baseline;display:inline;overflow:visible;vector-effect:none;enable-background:accumulate;stop-color:#000000;stop-opacity:1"
         d="m 3.9684387,5.0650363 a 0.08273374,0.08900939 0 0 1 -0.082734,0.089009 0.08273374,0.08900939 0 0 1 -0.082734,-0.089009 0.08273374,0.08900939 0 0 1 0.082734,-0.089009 0.08273374,0.08900939 0 0 1 0.082734,0.089009 z"
         id="path120" /><path
         style="baseline-shift:baseline;display:inline;overflow:visible;vector-effect:none;enable-background:accumulate;stop-color:#000000;stop-opacity:1"
         d="m 3.8847656,4.9472656 c -0.062691,0 -0.1113281,0.053343 -0.1113281,0.1171875 0,0.063845 0.048637,0.1191406 0.1113281,0.1191406 0.062691,0 0.1132813,-0.055296 0.1132813,-0.1191406 0,-0.063845 -0.05059,-0.1171875 -0.1132813,-0.1171875 z m 0,0.058594 c 0.028694,0 0.054687,0.024121 0.054687,0.058594 0,0.034473 -0.025993,0.060547 -0.054687,0.060547 -0.028694,0 -0.052734,-0.026074 -0.052734,-0.060547 0,-0.034472 0.02404,-0.058594 0.052734,-0.058594 z"
         id="path121" /></g><g
       id="path59-2-0-6-7-1-1-0"
       style="opacity:1"><path
         style="baseline-shift:baseline;display:inline;overflow:visible;vector-effect:none;enable-background:accumulate;stop-color:#000000;stop-opacity:1"
         d="m 4.0766575,0.93628877 a 0.08556747,0.08709455 0 0 1 -0.085567,0.0870945 0.08556747,0.08709455 0 0 1 -0.085568,-0.0870945 0.08556747,0.08709455 0 0 1 0.085568,-0.0870945 0.08556747,0.08709455 0 0 1 0.085567,0.0870945 z"
         id="path118" /><path
         style="baseline-shift:baseline;display:inline;overflow:visible;vector-effect:none;enable-background:accumulate;stop-color:#000000;stop-opacity:1"
         d="m 3.9902344,0.8203125 c -0.063436,0 -0.1132813,0.0515176 -0.1132813,0.11523438 0,0.0637168 0.049845,0.11718752 0.1132813,0.11718752 0.063436,0 0.1152343,-0.0534707 0.1152343,-0.11718752 0,-0.0637168 -0.051799,-0.11523438 -0.1152343,-0.11523438 z m 0,0.0585938 c 0.031079,0 0.056641,0.0241554 0.056641,0.0566406 0,0.0324852 -0.025561,0.0585937 -0.056641,0.0585938 -0.031079,0 -0.054687,-0.0261086 -0.054687,-0.0585938 0,-0.0324852 0.023608,-0.0566406 0.054687,-0.0566406 z"
         id="path119" /></g><g
       id="path59-2-0-6-7-1-4"
       style="opacity:1"><path
         style="baseline-shift:baseline;display:inline;overflow:visible;vector-effect:none;enable-background:accumulate;stop-color:#000000;stop-opacity:1"
         d="M 2.558362,0.95873886 A 0.09998109,0.11130857 0 0 1 2.4583809,1.0700474 0.09998109,0.11130857 0 0 1 2.3583998,0.95873886 0.09998109,0.11130857 0 0 1 2.4583809,0.8474303 0.09998109,0.11130857 0 0 1 2.558362,0.95873886 Z"
         id="path116" /><path
         style="baseline-shift:baseline;display:inline;overflow:visible;vector-effect:none;enable-background:accumulate;stop-color:#000000;stop-opacity:1"
         d="m 2.4589844,0.81054688 c -0.076842,0 -0.1367188,0.0695168 -0.1367188,0.1484375 0,0.0789207 0.059877,0.14648432 0.1367188,0.14648432 0.076842,0 0.1347656,-0.067564 0.1347656,-0.14648432 0,-0.0789207 -0.057924,-0.1484375 -0.1347656,-0.1484375 z m 0,0.0722656 c 0.033594,0 0.0625,0.0321445 0.0625,0.0761719 0,0.0440273 -0.028906,0.0742187 -0.0625,0.0742187 -0.033594,0 -0.064453,-0.030191 -0.064453,-0.0742187 0,-0.0440273 0.030859,-0.0761719 0.064453,-0.0761719 z"
         id="path117" /></g><g
       id="path59-2-0-6-7-3"
       style="opacity:1"><path
         style="baseline-shift:baseline;display:inline;overflow:visible;vector-effect:none;enable-background:accumulate;stop-color:#000000;stop-opacity:1"
         d="M 0.52203648,4.6630616 A 0.10391362,0.10640449 0 0 1 0.41812286,4.7694661 0.10391362,0.10640449 0 0 1 0.31420924,4.6630616 0.10391362,0.10640449 0 0 1 0.41812286,4.5566571 0.10391362,0.10640449 0 0 1 0.52203648,4.6630616 Z"
         id="path114" /><path
         style="baseline-shift:baseline;display:inline;overflow:visible;vector-effect:none;enable-background:accumulate;stop-color:#000000;stop-opacity:1"
         d="m 0.41796875,4.5214844 c -0.0772144,0 -0.13867187,0.062952 -0.13867187,0.140625 0,0.077673 0.0614574,0.1425781 0.13867187,0.1425781 0.0772144,0 0.140625,-0.064905 0.140625,-0.1425781 0,-0.077673 -0.0634106,-0.140625 -0.140625,-0.140625 z m 0,0.070312 c 0.0375654,0 0.0683594,0.030454 0.0683594,0.070312 0,0.039858 -0.030794,0.072266 -0.0683594,0.072266 -0.0375654,0 -0.0683594,-0.032407 -0.0683594,-0.072266 0,-0.039858 0.030794,-0.070312 0.0683594,-0.070312 z"
         id="path115" /></g><g
       id="path59-2-0-6-7-3-2"
       style="opacity:1"><path
         style="baseline-shift:baseline;display:inline;overflow:visible;vector-effect:none;enable-background:accumulate;stop-color:#000000;stop-opacity:1"
         d="M 0.62128019,1.4028575 A 0.11208981,0.10634731 0 0 1 0.50919038,1.5092048 0.11208981,0.10634731 0 0 1 0.39710057,1.4028575 0.11208981,0.10634731 0 0 1 0.50919038,1.2965102 0.11208981,0.10634731 0 0 1 0.62128019,1.4028575 Z"
         id="path112" /><path
         style="baseline-shift:baseline;display:inline;overflow:visible;vector-effect:none;enable-background:accumulate;stop-color:#000000;stop-opacity:1"
         d="m 0.50976562,1.2597656 c -0.0809779,0 -0.15039062,0.062656 -0.15039062,0.1425781 0,0.079922 0.0694127,0.1445313 0.15039062,0.1445313 0.0809779,0 0.1484375,-0.064609 0.1484375,-0.1445313 0,-0.079922 -0.0674596,-0.1425781 -0.1484375,-0.1425781 z m 0,0.074219 c 0.042833,0 0.0742188,0.030813 0.0742188,0.068359 0,0.037546 -0.0313857,0.070312 -0.0742188,0.070312 -0.042833,0 -0.0761719,-0.032766 -0.0761719,-0.070312 0,-0.037546 0.0333388,-0.068359 0.0761719,-0.068359 z"
         id="path113" /></g><g
       id="path59-2-0-6-7-3-2-6"
       style="opacity:1"><path
         style="baseline-shift:baseline;display:inline;overflow:visible;vector-effect:none;enable-background:accumulate;stop-color:#000000;stop-opacity:1"
         d="M 1.5284339,0.31552142 A 0.10530066,0.11492565 0 0 1 1.4231333,0.43044707 0.10530066,0.11492565 0 0 1 1.3178326,0.31552142 0.10530066,0.11492565 0 0 1 1.4231333,0.20059577 0.10530066,0.11492565 0 0 1 1.5284339,0.31552142 Z"
         id="path110" /><path
         style="baseline-shift:baseline;display:inline;overflow:visible;vector-effect:none;enable-background:accumulate;stop-color:#000000;stop-opacity:1"
         d="m 1.4238281,0.1640625 c -0.080262,0 -0.1425781,0.0703139 -0.1425781,0.15234375 0,0.0820299 0.062316,0.15234375 0.1425781,0.15234375 0.080262,0 0.1425781,-0.0703139 0.1425781,-0.15234375 0,-0.0820299 -0.062316,-0.15234375 -0.1425781,-0.15234375 z m 0,0.0742188 c 0.03605,0 0.066406,0.0332115 0.066406,0.078125 0,0.0449135 -0.030356,0.0761719 -0.066406,0.0761719 -0.03605,0 -0.068359,-0.0312584 -0.068359,-0.0761719 0,-0.0449135 0.032309,-0.078125 0.068359,-0.078125 z"
         id="path111" /></g><g
       id="path60"
       style="opacity:1"><path
         style="baseline-shift:baseline;display:inline;overflow:visible;vector-effect:none;enable-background:accumulate;stop-color:#000000;stop-opacity:1"
         d="M 2.3550325,0.93987519 2.5144038,1.050336 1.3272745,2.9705316 l -0.194986,0.00972"
         id="path108" /><path
         style="baseline-shift:baseline;display:inline;overflow:visible;vector-effect:none;enable-background:accumulate;stop-color:#000000;stop-opacity:1"
         d="M 2.3789063,0.90429688 2.3300781,0.97460938 2.4570313,1.0625 1.3027344,2.9296875 1.1308594,2.9375 1.1347694,3.021484 1.3515663,3.011714 2.5722694,1.0390577 Z"
         id="path109" /></g><g
       id="path61"
       style="opacity:1"><path
         style="baseline-shift:baseline;display:inline;overflow:visible;vector-effect:none;enable-background:accumulate;stop-color:#000000;stop-opacity:1"
         d="M 1.127823,2.9381726 2.3743832,0.90958778"
         id="path106" /><path
         style="baseline-shift:baseline;display:inline;overflow:visible;vector-effect:none;enable-background:accumulate;stop-color:#000000;stop-opacity:1"
         d="M 2.3378906,0.88671875 1.0917969,2.9160156 1.1640625,2.9609375 2.4101563,0.93164063 Z"
         id="path107" /></g><g
       id="path62"
       style="opacity:1"><path
         style="baseline-shift:baseline;display:inline;overflow:visible;vector-effect:none;enable-background:accumulate;stop-color:#000000;stop-opacity:1"
         d="M 1.1703688,3.0078409 1.1316493,2.8956107"
         id="path104" /><path
         style="baseline-shift:baseline;display:inline;overflow:visible;vector-effect:none;enable-background:accumulate;stop-color:#000000;stop-opacity:1"
         d="M 1.171875,2.8808594 1.091797,2.9101564 1.128906,3.0214845 1.210937,2.9941405 Z"
         id="path105" /></g><g
       id="path63"
       style="opacity:1"><path
         style="baseline-shift:baseline;display:inline;overflow:visible;vector-effect:none;enable-background:accumulate;stop-color:#000000;stop-opacity:1"
         d="M 2.3148427,5.0533844 2.4795105,4.9505686 1.3122798,3.0375232"
         id="path102" /><path
         style="baseline-shift:baseline;display:inline;overflow:visible;vector-effect:none;enable-background:accumulate;stop-color:#000000;stop-opacity:1"
         d="M 1.3496094,3.015625 1.2753906,3.0605469 2.421875,4.9375 2.2929688,5.017578 l 0.044922,0.072266 0.1992188,-0.125 z"
         id="path103" /></g><g
       id="path64"
       style="opacity:1"><path
         style="baseline-shift:baseline;display:inline;overflow:visible;vector-effect:none;fill-opacity:0;enable-background:accumulate;stop-color:#000000;stop-opacity:1"
         d="m 1.1443793,2.9454235 0.1917714,0.092613"
         id="path100" /><path
         style="baseline-shift:baseline;display:inline;overflow:visible;vector-effect:none;enable-background:accumulate;stop-color:#000000;stop-opacity:1"
         d="m 1.1582031,2.9160156 -0.027344,0.058594 0.1914062,0.09375 0.029297,-0.060547 z"
         id="path101" /></g><g
       id="path65"
       style="opacity:1"><path
         style="baseline-shift:baseline;display:inline;overflow:visible;vector-effect:none;fill-opacity:0;enable-background:accumulate;stop-color:#000000;stop-opacity:1"
         d="M 1.1629264,2.9959514 2.3367959,5.0897493"
         id="path98" /><path
         style="baseline-shift:baseline;display:inline;overflow:visible;vector-effect:none;enable-background:accumulate;stop-color:#000000;stop-opacity:1"
         d="m 1.1992187,2.9746094 -0.072266,0.041016 1.1738282,2.09375 0.072266,-0.041016 z"
         id="path99" /></g><g
       id="path66"
       style="opacity:1"><path
         style="baseline-shift:baseline;display:inline;overflow:visible;vector-effect:none;fill-opacity:0;enable-background:accumulate;stop-color:#000000;stop-opacity:1"
         d="M 2.0153779,4.4601772 1.1796835,3.0140468"
         id="path96" /><path
         style="baseline-shift:baseline;display:inline;overflow:visible;vector-effect:none;enable-background:accumulate;stop-color:#000000;stop-opacity:1"
         d="m 1.2167969,2.9921875 -0.074219,0.042969 0.8359375,1.4453124 0.074219,-0.041016 z"
         id="path97" /></g><g
       id="path67"
       style="opacity:1"><path
         style="baseline-shift:baseline;display:inline;overflow:visible;vector-effect:none;fill-opacity:0;enable-background:accumulate;stop-color:#000000;stop-opacity:1"
         d="M 1.2375254,3.0274396 1.6763077,3.7906741"
         id="path94" /><path
         style="baseline-shift:baseline;display:inline;overflow:visible;vector-effect:none;enable-background:accumulate;stop-color:#000000;stop-opacity:1"
         d="M 1.2734375,3.0058594 1.2011719,3.0488281 1.640625,3.8125 1.7128906,3.7695313 Z"
         id="path95" /></g><g
       id="path68"
       style="opacity:1"><path
         style="baseline-shift:baseline;display:inline;overflow:visible;vector-effect:none;fill-opacity:0;enable-background:accumulate;stop-color:#000000;stop-opacity:1"
         d="M 3.9199607,1.0430576 4.0760536,0.9339167 5.2545257,3.0522543"
         id="path92" /><path
         style="baseline-shift:baseline;display:inline;overflow:visible;vector-effect:none;enable-background:accumulate;stop-color:#000000;stop-opacity:1"
         d="M 4.0898437,0.87304688 3.8964844,1.0078125 3.9433594,1.078125 4.0605469,0.99609375 5.2167969,3.0722656 5.2910156,3.03125 Z"
         id="path93" /></g><g
       id="path69"
       style="opacity:1"><path
         style="baseline-shift:baseline;display:inline;overflow:visible;vector-effect:none;fill-opacity:0;enable-background:accumulate;stop-color:#000000;stop-opacity:1"
         d="M 3.9728896,1.0565237 5.1159024,3.0091059"
         id="path90" /><path
         style="baseline-shift:baseline;display:inline;overflow:visible;vector-effect:none;enable-background:accumulate;stop-color:#000000;stop-opacity:1"
         d="M 4.0097656,1.0351562 3.9375,1.078125 5.0800781,3.03125 5.1523437,2.9882813 Z"
         id="path91" /></g><g
       id="path72"
       style="opacity:1"><path
         style="baseline-shift:baseline;display:inline;overflow:visible;vector-effect:none;fill-opacity:0;enable-background:accumulate;stop-color:#000000;stop-opacity:1"
         d="M 5.1404218,2.9865737 5.1841638,2.9692483 4.0629583,0.99670984 3.9981214,1.050336 5.0389382,2.7956367"
         id="path88" /><path
         style="baseline-shift:baseline;display:inline;overflow:visible;vector-effect:none;enable-background:accumulate;stop-color:#000000;stop-opacity:1"
         d="M 4.0742187,0.93164063 3.9433594,1.0410156 5.0019531,2.8164063 5.0371094,2.7949219 5.125,2.9472656 l 0.00195,0.00586 0.029297,0.072266 0.087891,-0.035156 z"
         id="path89" /></g><g
       id="path73"
       style="opacity:1"><path
         style="baseline-shift:baseline;display:inline;overflow:visible;vector-effect:none;fill-opacity:0;enable-background:accumulate;stop-color:#000000;stop-opacity:1"
         d="M 5.252471,3.008235 3.9353664,5.1157833"
         id="path86" /><path
         style="baseline-shift:baseline;display:inline;overflow:visible;vector-effect:none;enable-background:accumulate;stop-color:#000000;stop-opacity:1"
         d="M 5.2148437,2.984375 3.8984375,5.0917969 3.9726563,5.1386719 5.2890625,3.03125 Z"
         id="path87" /></g><g
       id="path74"
       style="opacity:1"><path
         style="baseline-shift:baseline;display:inline;overflow:visible;vector-effect:none;fill-opacity:0;enable-background:accumulate;stop-color:#000000;stop-opacity:1"
         d="M 3.9963953,5.0991546 3.8552882,4.9929013 5.1397551,2.9939622 5.1786573,3.0397049 3.934097,4.9957705"
         id="path84" /><path
         style="baseline-shift:baseline;display:inline;overflow:visible;vector-effect:none;enable-background:accumulate;stop-color:#000000;stop-opacity:1"
         d="M 5.1347656,2.9101563 3.7871094,5.0058594 3.9667969,5.1386719 4.0273437,5.0585937 3.9785156,5.0214844 5.2421875,3.0351563 Z"
         id="path85" /></g><g
       id="path75"
       style="opacity:1"><path
         style="baseline-shift:baseline;display:inline;overflow:visible;vector-effect:none;fill-opacity:0;enable-background:accumulate;stop-color:#000000;stop-opacity:1"
         d="M 2.8690166,3.4715475 1.4170235,5.6318054"
         id="path82" /><path
         style="baseline-shift:baseline;display:inline;overflow:visible;vector-effect:none;enable-background:accumulate;stop-color:#000000;stop-opacity:1"
         d="M 2.8339844,3.4472656 1.3828125,5.6074219 1.4511719,5.65625 2.9042969,3.4941406 Z"
         id="path83" /></g><g
       id="path76"
       style="opacity:1"><path
         style="baseline-shift:baseline;display:inline;overflow:visible;vector-effect:none;fill-opacity:0;enable-background:accumulate;stop-color:#000000;stop-opacity:1"
         d="M 1.2255534,5.7210724 2.6615929,3.6857866"
         id="path80" /><path
         style="baseline-shift:baseline;display:inline;overflow:visible;vector-effect:none;enable-background:accumulate;stop-color:#000000;stop-opacity:1"
         d="M 2.6269531,3.6621094 1.1914062,5.6972656 1.2597656,5.7460937 2.6953125,3.7109375 Z"
         id="path81" /></g><g
       id="path77"
       style="opacity:1"><path
         style="baseline-shift:baseline;display:inline;overflow:visible;vector-effect:none;fill-opacity:0;enable-background:accumulate;stop-color:#000000;stop-opacity:1"
         d="M 2.9647562,3.2394513 2.853063,3.5786625"
         id="path78" /><path
         style="baseline-shift:baseline;display:inline;overflow:visible;vector-effect:none;enable-background:accumulate;stop-color:#000000;stop-opacity:1"
         d="M 2.9238281,3.2265625 2.8125,3.5664063 2.8925781,3.5917969 3.0039063,3.2519531 Z"
         id="path79" /></g></g><style>path{fill:#000}@media (prefers-color-scheme:dark){path{fill:#fff }}</style></svg>
