<?xml version="1.0" encoding="UTF-8"?>
<svg version="1.1" xmlns="http://www.w3.org/2000/svg" width="1024" height="1024">
<path d="M0 0 C9.86553078 4.25571916 16.40997146 17.43096551 22.46875 25.95800781 C25.25644451 29.87820322 28.06295069 33.78474927 30.875 37.6875 C31.40915527 38.42911377 31.94331055 39.17072754 32.49365234 39.93481445 C37.25630533 46.52088732 42.17836395 52.97506546 47.1875 59.375 C50.3663567 55.4897307 53.29678859 51.47455437 56.1875 47.375 C64.35581683 35.79084158 64.35581683 35.79084158 67.1875 34.375 C70.0625 34 70.0625 34 73.1875 34.375 C75.625 36.5 75.625 36.5 77.1875 39.375 C76.91842078 44.51635115 75.03222873 47.55463828 72.08203125 51.69140625 C71.25545549 52.87927635 70.42929577 54.06743604 69.60351562 55.25585938 C68.2995676 57.10593267 66.98994911 58.95153503 65.67211914 60.79174805 C64.39688832 62.58096648 63.14482413 64.3847106 61.89453125 66.19140625 C61.1363208 67.25818604 60.37811035 68.32496582 59.59692383 69.42407227 C57.86479154 72.25758935 57.86479154 72.25758935 58.81958008 75.04736328 C59.27099365 75.8154834 59.72240723 76.58360352 60.1875 77.375 C60.53280762 77.96321533 60.87811523 78.55143066 61.23388672 79.1574707 C61.60787598 79.69976318 61.98186523 80.24205566 62.3671875 80.80078125 C63.00938232 81.73615723 63.00938232 81.73615723 63.66455078 82.69042969 C64.12587402 83.34946289 64.58719727 84.00849609 65.0625 84.6875 C65.5457373 85.38391602 66.02897461 86.08033203 66.52685547 86.79785156 C71.88768403 94.46798661 77.5252903 101.92631773 83.1875 109.375 C89.01883796 117.07751432 94.71985442 124.86033134 100.36181641 132.70214844 C104.89060681 138.98803982 109.50429509 145.20333461 114.1875 151.375 C118.25286518 150.01987827 119.88380043 147.23767529 122.375 143.9375 C123.36546006 142.6494124 124.35634773 141.36165349 125.34765625 140.07421875 C125.83250488 139.4404834 126.31735352 138.80674805 126.81689453 138.15380859 C128.61278695 135.82305117 130.45949199 133.53550082 132.3125 131.25 C139.52630271 122.24367661 146.28438489 112.90427442 153.01147461 103.53271484 C156.00299668 99.37192652 159.02541162 95.23835891 162.09765625 91.13671875 C162.73872314 90.27828369 163.37979004 89.41984863 164.0402832 88.53540039 C165.28223915 86.87567673 166.52928778 85.21974877 167.78198242 83.56811523 C168.34377197 82.81602783 168.90556152 82.06394043 169.484375 81.2890625 C169.98291992 80.6285791 170.48146484 79.9680957 170.99511719 79.28759766 C172.28287008 77.22202513 172.96052415 75.80271946 173.1875 73.375 C172.32889429 71.42118597 172.32889429 71.42118597 170.87109375 69.58203125 C170.35651611 68.87320801 169.84193848 68.16438477 169.31176758 67.43408203 C168.47681763 66.32202393 168.47681763 66.32202393 167.625 65.1875 C166.51234106 63.66065139 165.40035511 62.13331211 164.2890625 60.60546875 C163.7518457 59.87505371 163.21462891 59.14463867 162.66113281 58.39208984 C160.88668943 55.96325432 159.17609161 53.4976242 157.5 51 C157.06300781 50.35289062 156.62601563 49.70578125 156.17578125 49.0390625 C153.8997764 45.20673814 153.87644929 41.72970996 154.1875 37.375 C155.3125 35.4375 155.3125 35.4375 157.1875 34.375 C160.0625 33.875 160.0625 33.875 163.1875 34.375 C169.89670434 39.96600361 174.51910844 47.70841197 179.296875 54.93164062 C180.00457031 55.98061523 180.00457031 55.98061523 180.7265625 57.05078125 C181.15146973 57.68927002 181.57637695 58.32775879 182.01416016 58.9855957 C182.59496338 59.67335083 182.59496338 59.67335083 183.1875 60.375 C183.8475 60.375 184.5075 60.375 185.1875 60.375 C187.10171378 58.01554978 188.90580686 55.64440488 190.6875 53.1875 C191.78578243 51.69741825 192.88474892 50.20784046 193.984375 48.71875 C194.53029297 47.97625 195.07621094 47.23375 195.63867188 46.46875 C198.48510969 42.62085424 201.42654413 38.847863 204.35546875 35.0625 C206.60880309 32.14104996 208.8319351 29.19771912 211.05078125 26.25 C223.14808135 10.1968856 223.14808135 10.1968856 228.3125 4.0625 C228.93382812 3.32386719 229.55515625 2.58523438 230.1953125 1.82421875 C232.95234372 -0.18138632 234.86067353 0.00033705 238.1875 0.375 C240.125 1.875 240.125 1.875 241.1875 4.375 C240.91548419 10.67780541 239.45115699 14.42611792 235.8125 19.5 C235.36986816 20.1396167 234.92723633 20.7792334 234.47119141 21.43823242 C229.65979157 28.3028672 224.45675153 34.85950251 219.1875 41.375 C217.85355748 43.04117914 216.52016988 44.70780279 215.1875 46.375 C214.56101562 47.15617187 213.93453125 47.93734375 213.2890625 48.7421875 C209.7520836 53.1732726 206.24224721 57.6251442 202.7578125 62.09765625 C201.23697587 64.04863412 199.69698819 65.96639066 198.1171875 67.87109375 C197.56289063 68.55300781 197.00859375 69.23492187 196.4375 69.9375 C195.96828125 70.49566406 195.4990625 71.05382812 195.015625 71.62890625 C193.78994523 74.21324048 194.32362437 75.69330077 195.1875 78.375 C196.45239288 80.58735325 196.45239288 80.58735325 198.125 82.75 C201.40723083 87.26306739 204.54223142 91.8497685 207.625 96.5 C208.29873657 97.51392822 208.29873657 97.51392822 208.98608398 98.54833984 C210.05427636 100.15652717 211.12104434 101.76566047 212.1875 103.375 C213.00347656 102.93671875 213.81945312 102.4984375 214.66015625 102.046875 C223.54668324 97.2853188 232.47387868 92.60448473 241.41650391 87.94921875 C246.87257062 85.10802054 252.320719 82.25287471 257.75830078 79.37646484 C264.49561498 75.8139032 271.25092296 72.29378621 278.0625 68.875 C278.71081787 68.54854492 279.35913574 68.22208984 280.02709961 67.88574219 C290.32920211 62.75177682 290.32920211 62.75177682 296.1875 63.375 C298.5625 64.4375 298.5625 64.4375 300.1875 66.375 C300.9375 69.6875 300.9375 69.6875 300.1875 73.375 C294.26889471 79.73736201 285.03824263 83.26639113 277.375 87.125 C275.9336236 87.85733127 274.49263142 88.5904192 273.05200195 89.32421875 C270.79085912 90.47559966 268.5293392 91.62619108 266.26628113 92.77380371 C260.62050252 95.63762536 254.99414285 98.53743072 249.375 101.453125 C247.7706295 102.2842575 246.16621917 103.11531312 244.56176758 103.94628906 C242.22857737 105.15473423 239.89590767 106.36412038 237.56503296 107.57702637 C235.40343101 108.7011027 233.23916078 109.81987344 231.07421875 110.9375 C230.4339978 111.27211243 229.79377686 111.60672485 229.13415527 111.95147705 C226.19545269 113.46280128 223.45399232 114.7815542 220.1875 115.375 C223.58162421 120.85863192 227.0352426 126.25342501 230.875 131.4375 C234.55960971 136.46659254 238.15802897 141.54867734 241.6875 146.6875 C242.49900513 147.83520874 242.49900513 147.83520874 243.3269043 149.00610352 C245.49440497 152.19577979 247.0460041 154.65291445 247.79296875 158.46484375 C246.97866353 162.37876241 245.17792428 165.34186655 243 168.625 C242.5572876 169.31319824 242.1145752 170.00139648 241.65844727 170.71044922 C237.63777335 176.87765427 233.31918209 182.82770061 228.96533203 188.76220703 C224.07213432 195.4504042 219.56413053 202.34072562 215.1875 209.375 C221.01014178 213.12131164 226.97236914 216.52223736 233.0625 219.8125 C234.00649658 220.32546631 234.95049316 220.83843262 235.9230957 221.36694336 C241.18564254 224.22279844 246.45886999 227.05826886 251.73828125 229.8828125 C261.91775382 235.33088599 272.09053795 240.7879252 282.125 246.5 C282.90576904 246.93707275 283.68653809 247.37414551 284.4909668 247.82446289 C291.19581371 251.68923571 291.19581371 251.68923571 293.1875 255.375 C293.56800713 258.48247489 293.67299091 260.46470454 292.1875 263.25 C289.01181413 265.0363233 285.71270755 264.7739582 282.1875 264.375 C278.79296875 263.01171875 278.79296875 263.01171875 275.375 261.0625 C274.43382324 260.53487061 274.43382324 260.53487061 273.47363281 259.99658203 C271.36698263 258.80807083 269.27700744 257.59337575 267.1875 256.375 C265.58491567 255.4513365 263.98204153 254.52817568 262.37890625 253.60546875 C259.96496736 252.21331297 257.55334532 250.81789057 255.14916992 249.40893555 C249.22734225 245.94007984 243.2258967 242.63614084 237.1875 239.375 C235.68219727 238.56095703 235.68219727 238.56095703 234.14648438 237.73046875 C229.97230118 235.47415351 225.79767332 233.21867362 221.62109375 230.96679688 C220.60402344 230.41701172 219.58695313 229.86722656 218.5390625 229.30078125 C217.62979004 228.81005127 216.72051758 228.31932129 215.78369141 227.8137207 C213.1875 226.375 213.1875 226.375 210.54052734 224.62963867 C209.76402832 224.21560791 208.9875293 223.80157715 208.1875 223.375 C204.63822314 224.55809229 204.18221074 225.44709904 202.15625 228.48828125 C201.59292969 229.32423828 201.02960938 230.16019531 200.44921875 231.02148438 C199.57716797 232.34116211 199.57716797 232.34116211 198.6875 233.6875 C197.53190796 235.41320119 196.37567965 237.13847652 195.21875 238.86328125 C194.70892578 239.63196533 194.19910156 240.40064941 193.67382812 241.19262695 C192.66367236 242.67583693 191.59973668 244.12351621 190.49145508 245.53491211 C188.97874747 247.26565109 188.97874747 247.26565109 189.29296875 249.328125 C190.40966867 251.88336848 191.8246973 253.89126307 193.5 256.125 C194.22316406 257.09566406 194.94632813 258.06632812 195.69140625 259.06640625 C196.52337089 260.16932108 197.35540593 261.27218281 198.1875 262.375 C199.11382537 263.61287426 200.03958334 264.85117327 200.96484375 266.08984375 C203.50846564 269.49164681 206.06062406 272.88695938 208.61425781 276.28125 C210.17022369 278.35200782 211.72248269 280.42548702 213.2734375 282.5 C217.59454286 288.27760336 221.91875206 294.05080993 226.33007812 299.76000977 C227.57569393 301.37362707 228.81340615 302.99333607 230.05078125 304.61328125 C231.3088318 306.23931734 232.58917582 307.84921322 233.91796875 309.41796875 C237.17681931 313.40709395 237.72478602 316.47960296 237.65625 321.45703125 C237.1875 323.375 237.1875 323.375 234.1875 325.375 C231.19459051 325.91916536 229.17084972 326.0159557 226.56079102 324.31469727 C221.85692245 320.29909979 218.37620765 315.88946695 214.875 310.8125 C213.73471116 309.1954581 212.59277269 307.57957826 211.44921875 305.96484375 C210.61656494 304.78510986 210.61656494 304.78510986 209.76708984 303.58154297 C207.6458911 300.61842176 205.43043369 297.74727234 203.1875 294.875 C198.01207886 288.21725693 193.08629528 281.38806131 188.16796875 274.5390625 C187.66700684 273.84329102 187.16604492 273.14751953 186.64990234 272.43066406 C185.67270466 271.05704061 184.70945616 269.6733893 183.76025391 268.28027344 C182.6155827 266.61247954 181.40731547 264.98864769 180.1875 263.375 C179.5275 263.375 178.8675 263.375 178.1875 263.375 C176.84839131 265.20186351 175.59092201 267.08893328 174.375 269 C166.51067234 280.98036965 166.51067234 280.98036965 161.625 282.4375 C158.1875 282.375 158.1875 282.375 155.75 281.375 C153.97030426 279.09698946 153.4363057 277.48076867 153.61328125 274.58203125 C155.834915 266.04309882 162.38750051 258.5280269 167.87890625 251.84765625 C169.49679726 249.44308114 169.49679726 249.44308114 168.59765625 246.8203125 C167.22593679 244.44165215 165.77789122 242.3296673 164.0625 240.1875 C161.1875 236.590311 161.1875 236.590311 161.1875 234.375 C160.5275 234.375 159.8675 234.375 159.1875 234.375 C157.33207295 231.95221096 155.59221662 229.51873042 153.875 227 C152.78741 225.4316313 151.69883571 223.86394479 150.609375 222.296875 C150.04541016 221.48283203 149.48144531 220.66878906 148.90039062 219.83007812 C146.18533786 215.93860569 143.40820288 212.09289518 140.625 208.25 C140.08496338 207.50314941 139.54492676 206.75629883 138.98852539 205.98681641 C135.00255225 200.48177854 130.98215388 195.00248693 126.95361328 189.52856445 C123.28470247 184.53290652 119.70564955 179.47811795 116.1875 174.375 C113.15790152 175.70283717 111.361803 177.0327001 109.3046875 179.61328125 C108.78277832 180.26135742 108.26086914 180.90943359 107.72314453 181.57714844 C107.17513184 182.27356445 106.62711914 182.96998047 106.0625 183.6875 C105.48483887 184.41098633 104.90717773 185.13447266 104.31201172 185.87988281 C102.59453992 188.03776854 100.88875222 190.20431298 99.1875 192.375 C98.74599609 192.93687012 98.30449219 193.49874023 97.84960938 194.07763672 C94.92307215 197.81381772 92.0485834 201.58864674 89.1875 205.375 C88.63336426 206.10702637 88.07922852 206.83905273 87.50830078 207.59326172 C80.55041094 216.79502897 73.65302196 226.03977603 66.875 235.375 C66.32996826 236.12225342 65.78493652 236.86950684 65.22338867 237.6394043 C64.7204126 238.33590088 64.21743652 239.03239746 63.69921875 239.75 C63.26053467 240.35585938 62.82185059 240.96171875 62.36987305 241.5859375 C61.1365565 243.45208321 60.147075 245.35636323 59.1875 247.375 C59.53006836 247.85855957 59.87263672 248.34211914 60.22558594 248.84033203 C61.79707382 251.05962096 63.36729504 253.27980322 64.9375 255.5 C65.47632813 256.26054688 66.01515625 257.02109375 66.5703125 257.8046875 C67.62892641 259.30223888 68.68424716 260.80212421 69.73608398 262.30444336 C70.62807041 263.57693063 71.52709029 264.84456431 72.43774414 266.10375977 C74.5329667 269.07281923 75.76388506 271.43234455 76.125 275.0625 C76.21652344 275.80886719 76.30804688 276.55523438 76.40234375 277.32421875 C76.1875 279.375 76.1875 279.375 74.87109375 281.1171875 C72.23425065 283.08717237 70.38669259 282.82288696 67.1875 282.375 C62.01526955 279.09954676 59.14457044 274.27949717 55.875 269.25 C55.32521484 268.42628906 54.77542969 267.60257813 54.20898438 266.75390625 C50.1875 260.64924301 50.1875 260.64924301 50.1875 258.375 C49.5275 258.375 48.8675 258.375 48.1875 258.375 C47.80078125 259.21224609 47.80078125 259.21224609 47.40625 260.06640625 C43.68817507 267.10929819 38.23655829 273.34220843 33.375 279.625 C29.79714005 284.25059291 26.27432022 288.91183724 22.8125 293.625 C22.36422852 294.23512939 21.91595703 294.84525879 21.45410156 295.47387695 C18.88843158 298.98692012 16.37358544 302.53073202 13.89453125 306.10546875 C13.34909668 306.88954102 12.80366211 307.67361328 12.24169922 308.48144531 C11.17858442 310.01430851 10.12142846 311.55132472 9.07080078 313.09277344 C8.59239746 313.78274414 8.11399414 314.47271484 7.62109375 315.18359375 C7.19884521 315.80032959 6.77659668 316.41706543 6.34155273 317.05249023 C5.96071533 317.48891846 5.57987793 317.92534668 5.1875 318.375 C4.5275 318.375 3.8675 318.375 3.1875 318.375 C2.94 318.973125 2.6925 319.57125 2.4375 320.1875 C0.92728707 322.83037263 -0.09276227 323.97837792 -2.8125 325.375 C-6.4375 325.25 -6.4375 325.25 -9.8125 324.375 C-12.29892946 320.64535582 -12.02670625 319.02809453 -11.42773438 314.74267578 C-10.38748706 310.73937479 -8.15336287 307.96894515 -5.5625 304.8125 C-5.03108398 304.13485596 -4.49966797 303.45721191 -3.95214844 302.7590332 C-2.25974554 300.6133611 -0.54035107 298.49219867 1.1875 296.375 C1.75210938 295.67826172 2.31671875 294.98152344 2.8984375 294.26367188 C5.12876588 291.51173444 7.36249568 288.76279349 9.61035156 286.02514648 C13.2627403 281.56727755 16.68079774 276.99530596 20.01953125 272.296875 C23.37064045 267.78042512 26.95046254 263.45303294 30.53320312 259.11914062 C33.93765874 254.98486262 37.12122433 250.76677145 40.1875 246.375 C38.34469807 242.29598899 35.80864711 238.69691758 33.3125 235 C32.87808594 234.35289062 32.44367188 233.70578125 31.99609375 233.0390625 C31.13922061 231.76275897 30.2814941 230.48702789 29.42285156 229.21191406 C27.66964541 226.60497275 25.92829533 223.99024135 24.1875 221.375 C20.85826038 222.05638663 18.14768541 223.29696916 15.13671875 224.859375 C14.13962891 225.3759668 13.14253906 225.89255859 12.11523438 226.42480469 C10.51131836 227.26640137 10.51131836 227.26640137 8.875 228.125 C7.76576172 228.70411133 6.65652344 229.28322266 5.51367188 229.87988281 C-2.98047972 234.34401529 -11.34900999 239.00652506 -19.68212891 243.76293945 C-27.36403452 248.14391138 -35.11763494 252.35934477 -42.97265625 256.42138672 C-44.75719685 257.34633571 -46.53497417 258.28429719 -48.3125 259.22265625 C-49.8903125 260.04056641 -49.8903125 260.04056641 -51.5 260.875 C-52.39074219 261.3390625 -53.28148437 261.803125 -54.19921875 262.28125 C-57.10832412 263.49881279 -59.67527526 264.07765315 -62.8125 264.375 C-65.69680627 263.1571818 -67.28367195 262.27711845 -68.875 259.5625 C-68.77341844 256.00714539 -66.97772988 254.11002722 -64.8125 251.375 C-61.23112505 248.23822566 -57.51795657 246.00017559 -53.30859375 243.79296875 C-52.36747742 243.29636749 -52.36747742 243.29636749 -51.40734863 242.78973389 C-49.35737423 241.70920953 -47.30369083 240.63594116 -45.25 239.5625 C-43.81616367 238.80798836 -42.38265533 238.05285314 -40.94946289 237.29711914 C-38.74792875 236.13628843 -36.54621777 234.97581105 -34.3434906 233.81724548 C-27.12533873 230.02006684 -19.93554858 226.17091688 -12.75 222.3125 C-10.4727135 221.09103909 -8.1953722 219.86968035 -5.91796875 218.6484375 C-4.87431152 218.08866211 -3.8306543 217.52888672 -2.75537109 216.95214844 C3.22021744 213.74970096 9.20294535 210.56065579 15.1875 207.375 C14.45789063 206.38886719 13.72828125 205.40273438 12.9765625 204.38671875 C6.34229255 195.34833632 -0.08335408 186.1754599 -6.34210205 176.87393188 C-7.1534041 175.66971943 -7.96747962 174.46737073 -8.78436279 173.26693726 C-9.94273416 171.56232303 -11.0899309 169.85070481 -12.234375 168.13671875 C-12.90049805 167.14631592 -13.56662109 166.15591309 -14.25292969 165.13549805 C-15.792678 162.41008568 -16.57174869 160.48429835 -16.8125 157.375 C-15.6108816 154.90107976 -14.39976197 152.82493752 -12.875 150.5625 C-12.2255542 149.56186523 -12.2255542 149.56186523 -11.56298828 148.54101562 C-9.99655563 146.14068952 -8.40515742 143.75800537 -6.8125 141.375 C-5.40200759 139.24631646 -3.99187206 137.11739641 -2.58203125 134.98828125 C1.32258262 129.10468188 5.24857499 123.23567411 9.1875 117.375 C6.4849518 115.2671043 3.7724246 113.5062604 0.7578125 111.87890625 C-0.1086792 111.40888184 -0.9751709 110.93885742 -1.86791992 110.45458984 C-2.79838135 109.9539502 -3.72884277 109.45331055 -4.6875 108.9375 C-6.68106398 107.85821033 -8.67455143 106.77877927 -10.66796875 105.69921875 C-12.1981665 104.87236572 -12.1981665 104.87236572 -13.75927734 104.02880859 C-16.673386 102.45035249 -19.58201556 100.86237378 -22.48828125 99.26953125 C-33.28789389 93.34327935 -33.28789389 93.34327935 -44.171875 87.57421875 C-45.0275708 87.12900879 -45.8832666 86.68379883 -46.76489258 86.22509766 C-48.361067 85.3980789 -49.95967398 84.57572894 -51.5612793 83.75927734 C-63.78161772 77.43676456 -63.78161772 77.43676456 -65.8125 73.375 C-66.25286697 68.20068807 -66.25286697 68.20068807 -64.8125 65.5 C-61.60673031 63.69675455 -58.3606994 63.9075818 -54.8125 64.375 C-51.77210518 65.45443012 -49.04984842 66.97005803 -46.25 68.5625 C-45.03050659 69.22983154 -45.03050659 69.22983154 -43.78637695 69.91064453 C-41.11709937 71.37936526 -38.46387709 72.87422947 -35.8125 74.375 C-34.89919922 74.88853027 -33.98589844 75.40206055 -33.04492188 75.93115234 C-28.25199141 78.62655122 -23.46766181 81.33672112 -18.6875 84.0546875 C-12.8207036 87.38168586 -6.91928163 90.64243786 -1 93.875 C-0.1236792 94.35501465 0.7526416 94.8350293 1.65551758 95.32958984 C7.43612537 98.47681578 13.28232639 101.46851658 19.1875 104.375 C19.48390381 103.60027344 19.78030762 102.82554687 20.08569336 102.02734375 C21.30550954 99.09091942 22.83609379 96.91140903 24.75 94.375 C25.44996094 93.42367187 26.14992188 92.47234375 26.87109375 91.4921875 C28.06607895 89.88409612 29.26209485 88.27669232 30.47314453 86.68066406 C31.7697883 84.96563915 33.04211609 83.23452925 34.3125 81.5 C35.49199219 79.92605469 35.49199219 79.92605469 36.6953125 78.3203125 C38.48251087 75.53609451 38.48251087 75.53609451 37.7109375 72.8671875 C35.87641383 69.86609493 33.86896879 67.1363529 31.6875 64.375 C30.77596661 63.21099628 29.86451029 62.04693219 28.953125 60.8828125 C28.48970703 60.29532227 28.02628906 59.70783203 27.54882812 59.10253906 C19.41212773 48.77698455 11.55867632 38.24294238 3.82226562 27.61523438 C2.78680899 26.19627528 1.74697386 24.78049231 0.70117188 23.36914062 C-0.58710881 21.63005333 -1.85836842 19.87988621 -3.125 18.125 C-3.82238281 17.17109375 -4.51976562 16.2171875 -5.23828125 15.234375 C-7.10082611 11.85129103 -7.649903 9.22312895 -7.8125 5.375 C-5.47812801 1.97954983 -4.1300121 0.55066828 0 0 Z M48.1875 86.375 C45.75226053 89.65955993 43.4971246 93.0677262 41.22119141 96.46411133 C40.07002347 98.17630992 38.90449095 99.87810232 37.73828125 101.58007812 C37.01769531 102.65322266 36.29710937 103.72636719 35.5546875 104.83203125 C34.88550293 105.82178955 34.21631836 106.81154785 33.52685547 107.83129883 C33.08486816 108.67072021 32.64288086 109.5101416 32.1875 110.375 C33.44549978 114.14899933 34.4197848 114.30362959 37.89453125 116.046875 C38.86769287 116.5428418 39.84085449 117.03880859 40.84350586 117.54980469 C42.40597046 118.32952637 42.40597046 118.32952637 44 119.125 C46.12352658 120.20611519 48.24593627 121.28942715 50.3671875 122.375 C51.38393555 122.89449219 52.40068359 123.41398437 53.44824219 123.94921875 C56.57745588 125.57797169 59.60269817 127.3065677 62.625 129.125 C67.15458878 131.83478332 71.7815904 134.26552586 76.5 136.625 C77.15863037 136.95467773 77.81726074 137.28435547 78.49584961 137.62402344 C82.67062625 139.68791048 86.89245522 141.57474837 91.1875 143.375 C89.86977683 140.56903842 88.39477748 138.1732135 86.5 135.72265625 C85.97116211 135.03518311 85.44232422 134.34770996 84.89746094 133.6394043 C84.33317383 132.91277588 83.76888672 132.18614746 83.1875 131.4375 C82.60516602 130.68186768 82.02283203 129.92623535 81.42285156 129.14770508 C79.68065601 126.88786265 77.93434139 124.63125206 76.1875 122.375 C67.5297404 111.15740214 58.9374855 99.90474153 50.71875 88.359375 C50.2134375 87.70453125 49.708125 87.0496875 49.1875 86.375 C48.8575 86.375 48.5275 86.375 48.1875 86.375 Z M182.1875 87.375 C175.47680455 95.47411519 168.89108154 103.58639397 162.86669922 112.2121582 C159.864859 116.48944535 156.69526755 120.60247663 153.4375 124.6875 C149.40446724 129.74652281 145.62822402 134.88726295 142.1875 140.375 C147.98033093 138.7579536 152.91199421 135.91686138 158.125 133 C167.24094574 127.95721859 176.42812519 123.07570844 185.68530273 118.29736328 C186.59481689 117.82669434 187.50433105 117.35602539 188.44140625 116.87109375 C189.23877197 116.46044678 190.0361377 116.0497998 190.85766602 115.62670898 C193.35163923 114.2868158 195.77083416 112.84909922 198.1875 111.375 C196.91641364 107.9589554 195.45355253 105.01793792 193.4375 101.984375 C192.9115625 101.19289063 192.385625 100.40140625 191.84375 99.5859375 C191.2971875 98.77382813 190.750625 97.96171875 190.1875 97.125 C189.6409375 96.29742187 189.094375 95.46984375 188.53125 94.6171875 C188.0053125 93.83085937 187.479375 93.04453125 186.9375 92.234375 C186.45796875 91.51733398 185.9784375 90.80029297 185.484375 90.06152344 C184.27747244 88.23814264 184.27747244 88.23814264 182.1875 87.375 Z M203.14477539 124.09667969 C201.97676392 124.69077637 201.97676392 124.69077637 200.78515625 125.296875 C199.9048877 125.73990967 199.02461914 126.18294434 198.11767578 126.6394043 C197.17134277 127.12965088 196.22500977 127.61989746 195.25 128.125 C194.27015137 128.62362549 193.29030273 129.12225098 192.28076172 129.63598633 C184.87809191 133.43022682 177.58168335 137.40559672 170.31542969 141.45361328 C165.26659085 144.25952909 160.18018074 146.94495865 155 149.5 C149.21666396 152.35441091 143.46577519 155.2621675 137.75 158.25 C137.00919189 158.63172363 136.26838379 159.01344727 135.50512695 159.40673828 C131.70097555 161.19577358 131.70097555 161.19577358 129.1875 164.375 C130.07308594 164.84284912 130.95867187 165.31069824 131.87109375 165.79272461 C169.72690349 185.80151273 169.72690349 185.80151273 182.4375 193.5625 C186.095939 195.76376414 189.7954687 197.86440378 193.5625 199.875 C194.53960938 200.4009375 195.51671875 200.926875 196.5234375 201.46875 C199.07773812 202.64438991 199.07773812 202.64438991 201.17382812 201.67285156 C203.48161848 200.18543479 204.56072401 198.80089346 206.0703125 196.515625 C206.59302734 195.73606445 207.11574219 194.95650391 207.65429688 194.15332031 C208.47510742 192.90180176 208.47510742 192.90180176 209.3125 191.625 C210.47016778 189.89503883 211.62903335 188.16587863 212.7890625 186.4375 C213.64806152 185.15166016 213.64806152 185.15166016 214.52441406 183.83984375 C216.85158714 180.3907628 219.2563732 177.00130376 221.6875 173.625 C222.4403125 172.57828125 223.193125 171.5315625 223.96875 170.453125 C225.15056253 168.81356818 226.34436366 167.18053204 227.61328125 165.60742188 C230.47776145 162.07437086 230.47776145 162.07437086 231.19921875 157.72265625 C230.06213175 155.08408757 228.75919961 153.0893319 227 150.8125 C224.12459126 147.01173245 221.34311813 143.1779233 218.6484375 139.24609375 C218.02735107 138.3425415 217.40626465 137.43898926 216.76635742 136.50805664 C215.51376759 134.68147767 214.26645205 132.85126966 213.0246582 131.01733398 C212.15200317 129.75191772 212.15200317 129.75191772 211.26171875 128.4609375 C210.48187622 127.3169751 210.48187622 127.3169751 209.6862793 126.14990234 C207.65735427 123.74718449 206.17559889 123.02591188 203.14477539 124.09667969 Z M23.1875 124.375 C21.42551255 126.50406817 19.79630739 128.63345959 18.1875 130.875 C17.70418213 131.54192871 17.22086426 132.20885742 16.72290039 132.89599609 C13.19304322 137.82803086 9.85168783 142.86510748 6.625 148 C6.20798828 148.66193359 5.79097656 149.32386719 5.36132812 150.00585938 C4.26939712 151.77504111 3.22619752 153.57404892 2.1875 155.375 C1.43146484 156.63763672 1.43146484 156.63763672 0.66015625 157.92578125 C-0.10298617 160.5601826 -0.10298617 160.5601826 1.6875 163.44140625 C2.50221575 164.61986172 3.3372687 165.78440599 4.1875 166.9375 C4.85471069 167.88858643 4.85471069 167.88858643 5.53540039 168.85888672 C6.5237799 170.26414177 7.52044572 171.66359352 8.52392578 173.05810547 C10.96609661 176.45936774 13.35853627 179.89492659 15.75585938 183.32788086 C16.98349062 185.08289966 18.21514224 186.83511439 19.45117188 188.58422852 C22.17298619 192.44102713 24.84905966 196.26806178 27.1875 200.375 C31.36993735 199.75663018 34.57694429 198.33159017 38.31640625 196.3828125 C38.89892151 196.08104599 39.48143677 195.77927948 40.081604 195.46836853 C41.97446676 194.48528258 43.86228413 193.49292801 45.75 192.5 C47.06258527 191.81536915 48.3753307 191.13104529 49.68823242 190.44702148 C57.98279783 186.11385622 66.21013763 181.66793351 74.38256836 177.1081543 C80.28049412 173.82945703 86.26382979 170.76308573 92.34301758 167.83422852 C94.99846567 166.54307944 97.08263666 165.47986334 99.1875 163.375 C84.23512789 155.15217347 69.15664317 147.21259578 53.97070312 139.43212891 C45.84772072 135.26925994 37.74239791 131.08121228 29.72875977 126.70996094 C26.63539158 124.9334022 26.63539158 124.9334022 23.1875 124.375 Z M80.0625 189.375 C75.37181495 192.15713823 70.64286271 194.71863366 65.75 197.125 C55.79805402 202.02077506 45.99705147 207.20123423 36.1875 212.375 C37.57985689 216.1867493 39.35373282 219.41254178 41.5625 222.8125 C42.17996094 223.76640625 42.79742187 224.7203125 43.43359375 225.703125 C45.33758998 228.60364487 47.24500999 231.50011478 49.1875 234.375 C52.9571927 230.74768778 56.24020091 226.94838707 59.4375 222.8125 C59.91348633 222.20188721 60.38947266 221.59127441 60.87988281 220.9621582 C64.68256543 216.06801181 68.40919163 211.11952045 72.10546875 206.14453125 C74.65979486 202.74675036 77.30183219 199.42392205 79.97265625 196.1171875 C81.37816007 194.45556523 81.37816007 194.45556523 81.1875 192.375 C81.8475 192.375 82.5075 192.375 83.1875 192.375 C84.57688077 190.41352126 85.9135411 188.41333424 87.1875 186.375 C84.23568196 186.375 82.57428709 187.84192014 80.0625 189.375 Z M143.1875 187.375 C144.61708874 190.47222348 146.33752387 193.03337226 148.42578125 195.7265625 C149.07514648 196.56960938 149.72451172 197.41265625 150.39355469 198.28125 C151.08868164 199.1784375 151.78380859 200.075625 152.5 201 C158.47848869 208.77284723 164.33020992 216.61683328 170.0246582 224.60009766 C172.65111859 228.27722822 175.31969576 231.87901007 178.1875 235.375 C181.49814661 234.27145113 181.81202 233.85777532 183.59765625 231.06640625 C184.24637695 230.06963867 184.24637695 230.06963867 184.90820312 229.05273438 C185.35099609 228.35470703 185.79378906 227.65667969 186.25 226.9375 C187.13473437 225.5625232 188.0213745 224.18877031 188.91015625 222.81640625 C189.29953369 222.20482666 189.68891113 221.59324707 190.09008789 220.96313477 C191.1875 219.375 191.1875 219.375 193.1875 217.375 C193.1875 216.385 193.1875 215.395 193.1875 214.375 C191.33720275 212.87275057 191.33720275 212.87275057 188.875 211.5625 C188.07449219 211.10230469 187.27398438 210.64210938 186.44921875 210.16796875 C182.70819758 208.11152717 178.96231543 206.06423158 175.21313477 204.02270508 C173.18550459 202.91849495 171.15865615 201.81284821 169.13256836 200.70581055 C166.02746198 199.00928687 162.92013298 197.3168903 159.8125 195.625 C158.75933594 195.04878906 157.70617187 194.47257813 156.62109375 193.87890625 C155.60402344 193.32589844 154.58695313 192.77289062 153.5390625 192.203125 C152.62979004 191.7071582 151.72051758 191.21119141 150.78369141 190.70019531 C148.29517839 189.42996317 145.79766529 188.36727479 143.1875 187.375 Z " fill="#040404" transform="translate(396.8125,337.625)"/>
<path d="M0 0 C3.12622718 1.04207573 3.76992349 1.76992349 6 4 C7.53545874 4.9414298 9.10021774 5.83634864 10.6875 6.6875 C11.49574219 7.12449219 12.30398438 7.56148438 13.13671875 8.01171875 C13.75160156 8.33785156 14.36648438 8.66398437 15 9 C14.67 9.66 14.34 10.32 14 11 C9.93774452 10.42176904 7.15237654 9.10882263 3.6875 6.9375 C2.80449219 6.38964844 1.92148437 5.84179688 1.01171875 5.27734375 C0.01591797 4.64505859 0.01591797 4.64505859 -1 4 C-0.67 2.68 -0.34 1.36 0 0 Z " fill="#202020" transform="translate(524,499)"/>
<path d="M0 0 C0.66 0.99 1.32 1.98 2 3 C-4.93 6.465 -4.93 6.465 -12 10 C-11.34 8.35 -10.68 6.7 -10 5 C-9.34 5 -8.68 5 -8 5 C-7.67 4.01 -7.34 3.02 -7 2 C-5.824375 1.7834375 -5.824375 1.7834375 -4.625 1.5625 C-2.03578982 1.12201075 -2.03578982 1.12201075 0 0 Z " fill="#201515" transform="translate(648,434)"/>
<path d="M0 0 C1.32 0.33 2.64 0.66 4 1 C4 1.66 4 2.32 4 3 C6.31 2.34 8.62 1.68 11 1 C11 1.99 11 2.98 11 4 C8.22899606 5.38550197 6.0665294 5.1877467 3 5 C2.01 4.34 1.02 3.68 0 3 C0 2.01 0 1.02 0 0 Z " fill="#0A0A0A" transform="translate(622,658)"/>
<path d="M0 0 C0.93065133 2.60582371 1.14917407 3.64198224 0.0625 6.25 C-0.4634375 7.11625 -0.4634375 7.11625 -1 8 C-2.65 8 -4.3 8 -6 8 C-5.6875 6.0625 -5.6875 6.0625 -5 4 C-4.01 3.67 -3.02 3.34 -2 3 C-1.34 2.01 -0.68 1.02 0 0 Z " fill="#222222" transform="translate(601,535)"/>
<path d="M0 0 C5.53846154 0.61538462 5.53846154 0.61538462 7.875 2.5625 C8.431875 3.2740625 8.431875 3.2740625 9 4 C7.375 4.6875 7.375 4.6875 5 5 C1.75 3.5625 1.75 3.5625 -1 2 C-0.67 1.34 -0.34 0.68 0 0 Z " fill="#141414" transform="translate(530,505)"/>
<path d="M0 0 C0.99 0.33 1.98 0.66 3 1 C2.67 1.99 2.34 2.98 2 4 C1.01 4 0.02 4 -1 4 C-1 4.99 -1 5.98 -1 7 C-2.98 7 -4.96 7 -7 7 C-5.74458443 4.48916886 -4.49936512 4.12874554 -2 3 C-2 2.34 -2 1.68 -2 1 C-1.34 0.67 -0.68 0.34 0 0 Z " fill="#272727" transform="translate(496,499)"/>
<path d="M0 0 C0.66 0.99 1.32 1.98 2 3 C-0.35380297 6.92300495 -2.64464931 7.83857315 -7 9 C-6.02180976 7.68677212 -5.0424189 6.37443848 -4.0625 5.0625 C-3.51722656 4.33160156 -2.97195313 3.60070312 -2.41015625 2.84765625 C-1 1 -1 1 0 0 Z " fill="#303030" transform="translate(522,478)"/>
<path d="M0 0 C1.32 0.66 2.64 1.32 4 2 C4 4.31 4 6.62 4 9 C1.27573689 6.64722731 0.1858237 4.37503669 -1 1 C-0.67 0.67 -0.34 0.34 0 0 Z " fill="#262628" transform="translate(693,402)"/>
<path d="M0 0 C0.66 0.33 1.32 0.66 2 1 C-0.25 3.5625 -0.25 3.5625 -3 6 C-5.3125 5.8125 -5.3125 5.8125 -7 5 C-4.81722366 2.81722366 -2.72872311 1.43257963 0 0 Z " fill="#242424" transform="translate(614,438)"/>
<path d="M0 0 C2.5 1.3125 2.5 1.3125 5 3 C5 3.99 5 4.98 5 6 C3.35 5.67 1.7 5.34 0 5 C-0.5625 3.0625 -0.5625 3.0625 -1 1 C-0.67 0.67 -0.34 0.34 0 0 Z " fill="#181918" transform="translate(509,487)"/>
<path d="M0 0 C0.66 0.99 1.32 1.98 2 3 C-2.75 6 -2.75 6 -5 6 C-4.75 4.125 -4.75 4.125 -4 2 C-1.9375 0.75 -1.9375 0.75 0 0 Z " fill="#1C1C1C" transform="translate(648,434)"/>
<path d="M0 0 C3.96 1.98 3.96 1.98 8 4 C7.67 4.66 7.34 5.32 7 6 C4.9375 6.625 4.9375 6.625 3 7 C0 2.25 0 2.25 0 0 Z " fill="#1F1E1F" transform="translate(360,412)"/>
<path d="M0 0 C1.485 0.99 1.485 0.99 3 2 C3 2.99 3 3.98 3 5 C1.02 5.99 1.02 5.99 -1 7 C-0.67 4.69 -0.34 2.38 0 0 Z " fill="#262626" transform="translate(610,543)"/>
<path d="M0 0 C1 3 1 3 0 6 C-1.65 5.67 -3.3 5.34 -5 5 C-4.360625 4.731875 -3.72125 4.46375 -3.0625 4.1875 C-0.66868314 3.11332248 -0.66868314 3.11332248 0 0 Z " fill="#232323" transform="translate(417,439)"/>
<path d="" fill="#FFFFFF" transform="translate(0,0)"/>
<path d="" fill="#FFFFFF" transform="translate(0,0)"/>
<path d="" fill="#FFFFFF" transform="translate(0,0)"/>
</svg>
